<svg data-name="etapa 2 cc" viewBox="0 0 1000 1000" xmlns="http://www.w3.org/2000/svg"><path d="M146.456 146.45a499.991 500 0 1 1 0 707.1 499.948 499.957 0 0 1 0-707.1z" style="stroke-width:4.32897"/><path class="head" d="M710.91 418.268v-98.484q0-9.221-.78-18.312c-8.658-107.62-94.286-192.165-198.528-192.165h-25.455c-104.199 0-189.74 84.46-198.528 192.165q-.78 9.09-.78 18.312v98.484a55.152 55.152 0 0 0-48.744 54.849v3.68a55.281 55.281 0 0 0 48.875 54.891v2.251c0 86.32 49.307 160.563 119.783 192.987 4.33 2.035 8.961 3.897 13.55 5.585v62.9a79.437 79.437 0 1 0 158.874 0v-63.42a238.473 238.473 0 0 0 12.987-5.54c69.957-32.685 118.788-106.538 118.788-192.512v-2.25a55.281 55.281 0 0 0 48.875-54.892v-3.68a55.108 55.108 0 0 0-48.918-54.849Z" style="fill:#585858;fill-opacity:1;stroke-width:4.32901"/><path class="top" d="M773.16 313.94a274.372 274.372 0 0 0-548.398-.52v133.506a39.61 39.61 0 0 0 13.333 29.524v-3.333a55.152 55.152 0 0 1 48.875-54.849V313.94h423.81v104.33a55.108 55.108 0 0 1 48.874 54.848v2.51a40.13 40.13 0 0 0 13.246-28.7z" style="fill:#f9f9f9;fill-opacity:1;stroke-width:4.32901"/><path class="clothes" d="M579.048 772.251v23.16a79.437 79.437 0 1 1-158.875 0v-62.9a193.735 193.735 0 0 1-13.55-5.585 118.615 118.615 0 0 0-25.281 58.312 116.32 116.32 0 0 0-1.169 16.58 119.437 119.437 0 0 0 238.875 0 123.03 123.03 0 0 0-1.17-16.58 118.442 118.442 0 0 0-25.757-58.788 238.473 238.473 0 0 1-12.987 5.541z" style="fill:#fff;fill-opacity:1;stroke-width:4.32901"/><path class="clothes" d="M617.879 785.238a123.03 123.03 0 0 1 1.169 16.58 119.437 119.437 0 0 1-238.875 0 116.32 116.32 0 0 1 1.169-16.58 314.113 314.113 0 0 0-153.333 134.2 500.216 500.216 0 0 0 543.376.346A313.81 313.81 0 0 0 617.88 785.238Z" style="fill:#1a1a1a;fill-opacity:1;stroke-width:4.32901"/><circle class="mouth" cx="612.771" cy="587.879" style="fill:#b8b8b8;fill-opacity:1;stroke-width:4.32901" r="29.437"/><path class="mouth" d="M548.485 588.009v-3.16a25.974 25.974 0 0 0-25.974-25.975h-54.07a25.974 25.974 0 0 0-25.973 25.974v3.16a25.974 25.974 0 0 0 17.013 24.416 25.974 25.974 0 0 0-17.013 24.373v3.16a25.974 25.974 0 0 0 25.974 25.974h54.026a25.974 25.974 0 0 0 25.974-25.974v-3.16a25.974 25.974 0 0 0-17.013-24.373 25.974 25.974 0 0 0 17.056-24.415z" style="fill:#7c7c7c;fill-opacity:1;stroke-width:4.32901"/><path class="eyes" d="M745.714 425.671H733.03a78.874 78.874 0 0 0-76.493-59.74h-67.62a78.701 78.701 0 0 0-55.843 23.203 80.087 80.087 0 0 0-15.628 22.381h-33.68a80.866 80.866 0 0 0-15.584-22.38 78.788 78.788 0 0 0-55.888-23.204h-67.922a78.788 78.788 0 0 0-76.493 59.74h-11.602a14.675 14.675 0 0 0-14.675 14.675v5.065a14.719 14.719 0 0 0 14.675 14.719h9.307a79.004 79.004 0 0 0 78.788 75.628h67.75a79.09 79.09 0 0 0 77.229-61.732h22.64a79.048 79.048 0 0 0 76.927 61.732h67.792a79.048 79.048 0 0 0 78.788-75.628h10.39a14.719 14.719 0 0 0 14.675-14.719v-5.065a14.675 14.675 0 0 0-14.849-14.675Zm-454.069 19.177a52.814 52.814 0 0 1 52.727-52.727h9.394l-54.978 90.91a52.64 52.64 0 0 1-7.143-26.408zm63.507 56.754-4.806 7.922h-6.06a52.51 52.51 0 0 1-9.48-.91l4.328-7.272 66.104-109.22h6.883a52.987 52.987 0 0 1 8.658.822zm66.32 7.013 5.325-8.658 28.355-46.97 9.09-15.065a53.463 53.463 0 0 1 .52 7.013v11.948a52.597 52.597 0 0 1-7.23 26.494 52.684 52.684 0 0 1-35.974 25.238zM588.918 392.12h9.437l-54.978 90.91a52.251 52.251 0 0 1-7.187-26.408v-11.948a52.814 52.814 0 0 1 52.728-52.554zm67.792 0a51.948 51.948 0 0 1 8.658.823L599.74 501.602h-10.822c-1.689 0-3.377 0-5.022-.26l65.628-109.22zm9.437 116.494 5.282-8.658 37.489-62.035a53.463 53.463 0 0 1 .52 7.013v11.948a52.9 52.9 0 0 1-43.29 51.948z" style="fill:#1a1a1a;fill-opacity:1;stroke-width:4.32901"/><path class="eyes" d="M412.121 365.93a78.788 78.788 0 0 1 55.888 23.204 65.8 65.8 0 0 0-55.888-31.125h-67.749a65.714 65.714 0 0 0-55.887 31.125 78.701 78.701 0 0 1 55.887-23.203zm-67.749 26.191a52.814 52.814 0 0 0-52.727 52.727v11.949a52.64 52.64 0 0 0 7.143 26.406l54.978-90.909zm60.866 0-65.93 109.221-4.33 7.273a52.51 52.51 0 0 0 9.48.909h6.061l4.633-7.922 65.627-108.658a52.987 52.987 0 0 0-8.658-.823zm50 60.779-28.355 46.97-5.325 8.658a52.684 52.684 0 0 0 36.061-25.325 52.597 52.597 0 0 0 7.23-26.493v-11.948a53.463 53.463 0 0 0-.52-7.013zm201.299-86.97a78.701 78.701 0 0 1 55.844 23.204 65.671 65.671 0 0 0-55.844-31.125h-67.62a65.671 65.671 0 0 0-55.843 31.125 78.701 78.701 0 0 1 55.844-23.203zm14.632 133.94-5.282 8.658a52.9 52.9 0 0 0 43.29-51.948v-11.948a53.463 53.463 0 0 0-.519-7.013zm-82.251-107.749a52.814 52.814 0 0 0-52.728 52.727v11.949a52.251 52.251 0 0 0 7.187 26.406l54.978-90.909zm60.606 0-65.801 109.221c1.645 0 3.333.26 5.022.26h10.865l65.628-108.658a51.948 51.948 0 0 0-8.658-.823z" style="fill:#fff;fill-opacity:1;stroke-width:4.32901"/></svg>