<svg data-name="CC FINAL AVATARS" viewBox="0 0 1000 1000" xmlns="http://www.w3.org/2000/svg"><path d="M500 0A500 500 0 1 1 0 500 500 500 0 0 1 500 0Z" style="fill:#333;fill-rule:evenodd;stroke-width:4.32901"/><path class="head" d="M711.212 418.593v-98.485q0-9.22-.78-18.311c-8.657-107.62-94.328-192.165-198.527-192.165H486.45c-104.199 0-189.74 84.459-198.528 192.165q-.78 9.09-.78 18.311v98.485a55.152 55.152 0 0 0-48.874 54.849v3.68a55.281 55.281 0 0 0 48.875 54.891v2.251c0 91.732 55.67 169.784 133.29 198.571v62.9a79.697 79.697 0 0 0 79.48 79.438 79.697 79.697 0 0 0 79.524-79.437v-63.42C656.277 703.139 711.3 625.519 711.3 534.264v-2.251a55.281 55.281 0 0 0 48.874-54.892v-3.68a55.152 55.152 0 0 0-48.96-54.848z" style="fill:#fff;fill-opacity:1;stroke-width:4.32901"/><path class="mouth" d="M550.476 588.009v-3.16a25.974 25.974 0 0 0-25.974-25.975h-54.07a25.974 25.974 0 0 0-25.973 25.974v3.16a25.974 25.974 0 0 0 17.013 24.416 25.974 25.974 0 0 0-17.013 24.373v3.16a25.974 25.974 0 0 0 25.974 25.974h54.026a25.974 25.974 0 0 0 25.974-25.974v-3.16a25.974 25.974 0 0 0-17.013-24.373 25.974 25.974 0 0 0 17.056-24.415z" style="fill:#5a5a5a;fill-opacity:1;stroke-width:4.32901"/><path class="top" d="M771.602 293.203a274.2 274.2 0 0 0-545.195 0 201.645 201.645 0 1 0 110.736 379.091 216.45 216.45 0 0 1-49.35-138.528v-2.25a55.281 55.281 0 0 1-48.875-54.893v-3.68a55.152 55.152 0 0 1 48.874-54.675V313.94h423.81v104.33a55.152 55.152 0 0 1 48.874 54.848v3.68a55.281 55.281 0 0 1-48.874 54.891v2.251a216.45 216.45 0 0 1-49.221 138.529 201.688 201.688 0 1 0 108.961-379.135z" style="fill:#c5c5c5;fill-opacity:1;stroke-width:4.32901"/><path class="top" style="fill:#7c7c7c;fill-opacity:1;stroke-width:4.32901" d="m693.853 87.403 14.892 47.1 36.407-33.377-10.65 48.268 48.269-10.65-33.377 36.45 47.1 14.893-47.1 14.848 33.377 36.45-48.269-10.65 10.65 48.226-36.407-33.333-14.892 47.1-14.892-47.1-36.45 33.333 10.65-48.225-48.226 10.65 33.333-36.45-47.1-14.85 47.1-14.891-33.333-36.45 48.225 10.649-10.65-48.268 36.451 33.376z"/><path class="clothes" d="M617.879 785.238a118.831 118.831 0 0 0-25.671-58.831 209.432 209.432 0 0 1-12.987 5.584v63.42a79.437 79.437 0 1 1-158.875 0v-62.9a177.872 177.872 0 0 1-13.55-5.585 118.615 118.615 0 0 0-25.28 58.312 116.32 116.32 0 0 0-1.17 16.58 119.437 119.437 0 0 0 238.875 0 123.03 123.03 0 0 0-1.342-16.58z" style="fill:#b3b3b3;fill-opacity:1;stroke-width:4.32901"/><path class="clothes" d="M617.879 785.238a123.03 123.03 0 0 1 1.169 16.58 119.437 119.437 0 0 1-238.875 0 116.32 116.32 0 0 1 1.169-16.58 314.113 314.113 0 0 0-153.333 134.2 500.216 500.216 0 0 0 543.376.346A313.81 313.81 0 0 0 617.88 785.238Z" style="fill:#5a5a5a;fill-opacity:1;stroke-width:4.32901"/><path class="eyes" d="M745.541 425.671h-12.684a78.874 78.874 0 0 0-76.493-59.74h-67.62a78.701 78.701 0 0 0-55.844 23.203 80.087 80.087 0 0 0-15.627 22.381h-33.68a80.866 80.866 0 0 0-15.584-22.38 78.788 78.788 0 0 0-55.888-23.204H344.2a78.788 78.788 0 0 0-76.493 59.74h-11.602a14.675 14.675 0 0 0-14.675 14.675v5.065a14.719 14.719 0 0 0 14.675 14.719h9.307a79.004 79.004 0 0 0 78.788 75.628h67.75a79.09 79.09 0 0 0 77.228-61.732h22.641a79.048 79.048 0 0 0 76.927 61.732h67.792a79.048 79.048 0 0 0 78.788-75.628h10.39a14.719 14.719 0 0 0 14.675-14.719v-5.065a14.675 14.675 0 0 0-14.849-14.675Zm-454.07 19.177a52.814 52.814 0 0 1 52.728-52.727h9.394l-54.978 90.91a52.64 52.64 0 0 1-7.143-26.408zm63.507 56.754-4.805 7.922h-6.06a52.51 52.51 0 0 1-9.481-.91l4.329-7.272 66.104-109.22h6.883a52.987 52.987 0 0 1 8.658.822zm66.32 7.013 5.325-8.658 28.355-46.97 9.091-15.065a53.463 53.463 0 0 1 .52 7.013v11.948a52.597 52.597 0 0 1-7.23 26.494 52.684 52.684 0 0 1-35.974 25.238zM588.746 392.12h9.437l-54.979 90.91a52.251 52.251 0 0 1-7.186-26.408v-11.948a52.814 52.814 0 0 1 52.728-52.554zm67.792 0a51.948 51.948 0 0 1 8.658.823l-65.628 108.658h-10.822c-1.689 0-3.377 0-5.022-.26l65.628-109.22zm9.437 116.494 5.281-8.658 37.49-62.035a53.463 53.463 0 0 1 .52 7.013v11.948a52.9 52.9 0 0 1-43.291 51.948z" style="fill:#1a1a1a;fill-opacity:1;stroke-width:4.32901"/><path class="eyes" d="M411.948 365.93a78.788 78.788 0 0 1 55.888 23.204 65.8 65.8 0 0 0-55.888-31.125H344.2a65.714 65.714 0 0 0-55.887 31.125 78.701 78.701 0 0 1 55.887-23.203zM344.2 392.122a52.814 52.814 0 0 0-52.727 52.727v11.949a52.64 52.64 0 0 0 7.143 26.406l54.978-90.909zm60.866 0-65.93 109.221-4.33 7.273a52.51 52.51 0 0 0 9.48.909h6.061l4.632-7.922 65.628-108.658a52.987 52.987 0 0 0-8.658-.823zm50 60.78-28.355 46.97-5.325 8.657a52.684 52.684 0 0 0 36.06-25.325 52.597 52.597 0 0 0 7.23-26.493v-11.948a53.463 53.463 0 0 0-.52-7.013zm201.299-86.97a78.701 78.701 0 0 1 55.844 23.203 65.671 65.671 0 0 0-55.844-31.125h-67.62a65.671 65.671 0 0 0-55.844 31.125 78.701 78.701 0 0 1 55.845-23.203zm14.632 133.94-5.282 8.657a52.9 52.9 0 0 0 43.29-51.948v-11.948a53.463 53.463 0 0 0-.52-7.013zm-82.251-107.75a52.814 52.814 0 0 0-52.728 52.727v11.949a52.251 52.251 0 0 0 7.186 26.406l54.979-90.909zm60.606 0L583.55 501.342c1.645 0 3.333.26 5.021.26h10.866l65.628-108.658a51.948 51.948 0 0 0-8.658-.823z" style="fill:#fff;fill-opacity:1;stroke-width:4.32901"/></svg>