<svg id="CC_FINAL_AVATARS" data-name="CC FINAL AVATARS" viewBox="0 0 231 231" version="1.1" xmlns="http://www.w3.org/2000/svg"><defs id="defs4"><style id="style2"></style></defs><path d="M115.5 0A115.5 115.5 0 1 1 0 115.5 115.5 115.5 0 0 1 115.5 0Z" id="path6" style="fill:#333;fill-rule:evenodd"/><path class="head" d="M164.44 96.62V73.87q0-2.13-.18-4.23c-2-24.86-21.79-44.39-45.86-44.39h-5.88c-24.07 0-43.83 19.51-45.86 44.39q-.18 2.1-.18 4.23v22.75a12.74 12.74 0 0 0-11.29 12.67v.85a12.77 12.77 0 0 0 11.29 12.68v.52c0 21.19 12.86 39.22 30.79 45.87v14.53a18.41 18.41 0 0 0 18.36 18.35A18.41 18.41 0 0 0 134 183.74v-14.65c17.75-6.74 30.46-24.67 30.46-45.75v-.52a12.77 12.77 0 0 0 11.29-12.68v-.85a12.74 12.74 0 0 0-11.31-12.67Z" id="path8" style="fill:#fff;fill-opacity:1"/><path class="mouth" d="M127.16 135.83v-.73a6 6 0 0 0-6-6h-12.49a6 6 0 0 0-6 6v.73a6 6 0 0 0 3.93 5.64 6 6 0 0 0-3.93 5.63v.73a6 6 0 0 0 6 6h12.48a6 6 0 0 0 6-6v-.73a6 6 0 0 0-3.93-5.63 6 6 0 0 0 3.94-5.64Z" id="path10" style="fill:#5a5a5a;fill-opacity:1"/><path class="top" d="M178.24 67.73a63.34 63.34 0 0 0-125.94 0 46.58 46.58 0 1 0 25.58 87.57 50 50 0 0 1-11.4-32v-.52a12.77 12.77 0 0 1-11.29-12.68v-.85a12.74 12.74 0 0 1 11.29-12.63v-24.1h97.9v24.1a12.74 12.74 0 0 1 11.29 12.67v.85a12.77 12.77 0 0 1-11.29 12.68v.52a50 50 0 0 1-11.37 32 46.59 46.59 0 1 0 25.17-87.58Z" id="path12" style="fill:#c5c5c5;fill-opacity:1"/><path class="top" id="polygon14" style="fill:#7c7c7c;fill-opacity:1" d="m160.28 20.19 3.44 10.88 8.41-7.71-2.46 11.15 11.15-2.46-7.71 8.42 10.88 3.44-10.88 3.43 7.71 8.42-11.15-2.46 2.46 11.14-8.41-7.7-3.44 10.88-3.44-10.88-8.42 7.7 2.46-11.14-11.14 2.46 7.7-8.42-10.88-3.43 10.88-3.44-7.7-8.42 11.14 2.46-2.46-11.15 8.42 7.71 3.44-10.88z"/><path class="clothes" d="M142.73 181.39a27.45 27.45 0 0 0-5.93-13.59c-1 .47-2 .9-3 1.29v14.65a18.35 18.35 0 1 1-36.7 0v-14.53c-1.07-.39-2.11-.82-3.13-1.29a27.4 27.4 0 0 0-5.84 13.47 26.87 26.87 0 0 0-.27 3.83 27.59 27.59 0 0 0 55.18 0 28.42 28.42 0 0 0-.31-3.83Z" id="path36" style="fill:#b3b3b3;fill-opacity:1"/><path class="clothes" d="M142.73 181.39a28.42 28.42 0 0 1 .27 3.83 27.59 27.59 0 0 1-55.18 0 26.87 26.87 0 0 1 .27-3.83 72.56 72.56 0 0 0-35.42 31 115.55 115.55 0 0 0 125.52.08 72.49 72.49 0 0 0-35.46-31.08Z" id="path34" style="fill:#5a5a5a;fill-opacity:1"/><path class="eyes" d="M172.22 98.33h-2.93a18.22 18.22 0 0 0-17.67-13.8H136a18.18 18.18 0 0 0-12.9 5.36 18.5 18.5 0 0 0-3.61 5.17h-7.78a18.68 18.68 0 0 0-3.6-5.17 18.2 18.2 0 0 0-12.91-5.36H79.51a18.2 18.2 0 0 0-17.67 13.8h-2.68a3.39 3.39 0 0 0-3.39 3.39v1.17a3.4 3.4 0 0 0 3.39 3.4h2.15a18.25 18.25 0 0 0 18.2 17.47h15.65A18.27 18.27 0 0 0 113 109.5h5.23A18.26 18.26 0 0 0 136 123.76h15.66a18.26 18.26 0 0 0 18.2-17.47h2.4a3.4 3.4 0 0 0 3.39-3.4v-1.17a3.39 3.39 0 0 0-3.43-3.39Zm-104.89 4.43a12.2 12.2 0 0 1 12.18-12.18h2.17l-12.7 21a12.16 12.16 0 0 1-1.65-6.1ZM82 115.87l-1.11 1.83h-1.4a12.13 12.13 0 0 1-2.19-.21l1-1.68 15.27-25.23h1.59a12.24 12.24 0 0 1 2 .19Zm15.32 1.62 1.23-2 6.55-10.85 2.1-3.48a12.35 12.35 0 0 1 .12 1.62v2.76a12.15 12.15 0 0 1-1.67 6.12 12.17 12.17 0 0 1-8.31 5.83ZM136 90.58h2.18l-12.7 21a12.07 12.07 0 0 1-1.66-6.1v-2.76A12.2 12.2 0 0 1 136 90.58Zm15.66 0a12 12 0 0 1 2 .19l-15.16 25.1H136c-.39 0-.78 0-1.16-.06L150 90.58Zm2.18 26.91 1.22-2 8.66-14.33a12.35 12.35 0 0 1 .12 1.62v2.76a12.22 12.22 0 0 1-10 12Z" id="path32" style="fill:#1a1a1a;fill-opacity:1"/><path class="eyes" d="M95.16 84.53a18.2 18.2 0 0 1 12.91 5.36 15.2 15.2 0 0 0-12.91-7.19H79.51a15.18 15.18 0 0 0-12.91 7.19 18.18 18.18 0 0 1 12.91-5.36Z" id="path16" style="fill:#fff;fill-opacity:1"/><path class="eyes" d="M79.51 90.58a12.2 12.2 0 0 0-12.18 12.18v2.76a12.16 12.16 0 0 0 1.65 6.1l12.7-21Z" id="path18" style="fill:#fff;fill-opacity:1"/><path class="eyes" d="m93.57 90.58-15.23 25.23-1 1.68a12.13 12.13 0 0 0 2.19.21h1.4l1.07-1.83 15.16-25.1a12.24 12.24 0 0 0-2-.19Z" id="path20" style="fill:#fff;fill-opacity:1"/><path class="eyes" d="m105.12 104.62-6.55 10.85-1.23 2a12.17 12.17 0 0 0 8.33-5.85 12.15 12.15 0 0 0 1.67-6.12v-2.76a12.35 12.35 0 0 0-.12-1.62Z" id="path22" style="fill:#fff;fill-opacity:1"/><path class="eyes" d="M151.62 84.53a18.18 18.18 0 0 1 12.9 5.36 15.17 15.17 0 0 0-12.9-7.19H136a15.17 15.17 0 0 0-12.9 7.19 18.18 18.18 0 0 1 12.9-5.36Z" id="path24" style="fill:#fff;fill-opacity:1"/><path class="eyes" d="m155 115.47-1.22 2a12.22 12.22 0 0 0 10-12v-2.76a12.35 12.35 0 0 0-.12-1.62Z" id="path26" style="fill:#fff;fill-opacity:1"/><path class="eyes" d="M136 90.58a12.2 12.2 0 0 0-12.18 12.18v2.76a12.07 12.07 0 0 0 1.66 6.1l12.7-21Z" id="path28" style="fill:#fff;fill-opacity:1"/><path class="eyes" d="m150 90.58-15.2 25.23c.38 0 .77.06 1.16.06h2.51l15.16-25.1a12 12 0 0 0-2-.19Z" id="path30" style="fill:#fff;fill-opacity:1"/></svg>