<svg id="FINAL_AVATARS" data-name="FINAL AVATARS" xmlns="http://www.w3.org/2000/svg" xmlns:xlink="http://www.w3.org/1999/xlink" viewBox="0 0 231 231"><defs><style>.cls-1{fill:none;clip-rule:evenodd;}.cls-2{fill:#fff;}.cls-3{clip-path:url(#clip-path);}.cls-4{fill:#333;fill-rule:evenodd;}.cls-5{fill:#c5c5c5;}.cls-6{fill:#5a5a5a;}.cls-11,.cls-7{fill:#b3b3b3;}.cls-8{fill:#1d006d;}.cls-9{fill:#7c7c7c;}.cls-10{fill:#1a1a1a;}.cls-11{stroke:#1a1a1a;stroke-miterlimit:10;stroke-width:6.06px;}</style><clipPath id="clip-path"><path class="cls-1" d="M115.5,0A115.5,115.5,0,1,1,0,115.5,115.5,115.5,0,0,1,115.5,0Z"/></clipPath></defs><path class="cls-2" d="M66.48,96.62v26.2a12.77,12.77,0,0,1-11.29-12.68v-.85A12.74,12.74,0,0,1,66.48,96.62Z"/><g class="cls-3"><path class="cls-4" d="M115.5,0A115.5,115.5,0,1,1,0,115.5,115.5,115.5,0,0,1,115.5,0Z"/><circle class="cls-5" cx="174.98" cy="114.2" r="46.59"/><circle class="cls-5" cx="56.02" cy="114.2" r="46.59"/><circle class="cls-6" cx="115.63" cy="248.31" r="72.28"/><circle class="cls-7" cx="115.63" cy="185.22" r="27.59"/><rect class="cls-2" x="97.27" y="139.13" width="36.71" height="62.96" rx="18.35"/><path class="cls-2" d="M164.26,69.64c-2-24.86-21.79-44.39-45.86-44.39h-5.88c-24.07,0-43.83,19.51-45.86,44.39q-.18,2.1-.18,4.23v49.47c0,26.84,20.61,48.61,46,48.61h5.88c25.41,0,46-21.75,46-48.61V73.87Q164.44,71.74,164.26,69.64Z"/><path class="cls-2" d="M164.44,96.62v26.2a12.77,12.77,0,0,0,11.29-12.68v-.85A12.74,12.74,0,0,0,164.44,96.62Z"/><rect class="cls-8" x="87.64" y="98.32" width="12.75" height="24.5" rx="6.01"/><rect class="cls-2" x="94.9" y="102.02" width="3.58" height="10.64" rx="1.79"/><rect class="cls-6" x="102.66" y="129.09" width="24.5" height="12.75" rx="6.01"/><rect class="cls-6" x="102.66" y="141.09" width="24.5" height="12.75" rx="6.01"/><rect class="cls-8" x="131.14" y="98.32" width="12.75" height="24.5" rx="6.01"/><rect class="cls-2" x="138.4" y="102.02" width="3.58" height="10.64" rx="1.79"/><path class="cls-5" d="M159.84,29.61A63.37,63.37,0,0,0,51.94,72.52H178.6A63.17,63.17,0,0,0,159.84,29.61Z"/><polygon class="cls-9" points="160.28 20.19 163.72 31.07 172.13 23.36 169.67 34.51 180.82 32.05 173.11 40.47 183.99 43.91 173.11 47.34 180.82 55.76 169.67 53.3 172.13 64.44 163.72 56.74 160.28 67.62 156.84 56.74 148.42 64.44 150.88 53.3 139.74 55.76 147.44 47.34 136.56 43.91 147.44 40.47 139.74 32.05 150.88 34.51 148.42 23.36 156.84 31.07 160.28 20.19"/></g><path class="cls-2" d="M66.48,96.62v26.2a12.77,12.77,0,0,1-11.29-12.68v-.85A12.74,12.74,0,0,1,66.48,96.62Z"/><rect class="cls-10" x="105.12" y="95.06" width="17.2" height="14.44"/><rect class="cls-7" x="64.3" y="82.7" width="46.07" height="33.17" rx="15.21"/><rect class="cls-10" x="55.77" y="98.33" width="11.06" height="7.96" rx="3.39"/><rect class="cls-11" x="64.3" y="87.56" width="46.07" height="33.17" rx="15.21"/><polygon class="cls-10" points="67.73 113.69 83.51 87.56 95.4 87.56 75.74 120.11 67.73 113.69"/><polygon class="cls-10" points="79.46 120.11 99.11 87.56 109.33 97.65 95.76 120.11 79.46 120.11"/><rect class="cls-7" x="120.76" y="82.7" width="46.07" height="33.17" rx="15.21"/><rect class="cls-10" x="164.56" y="98.33" width="11.06" height="7.96" rx="3.39"/><rect class="cls-11" x="120.76" y="87.56" width="46.07" height="33.17" rx="15.21"/><polygon class="cls-10" points="124.19 113.69 139.97 87.56 151.86 87.56 132.2 120.11 124.19 113.69"/><polygon class="cls-10" points="135.91 120.11 155.57 87.56 165.78 97.65 152.22 120.11 135.91 120.11"/></svg>