<svg data-name="CC FINAL AVATARS" viewBox="0 0 1000 1000" xmlns="http://www.w3.org/2000/svg"><path d="M500 0A500 500 0 1 1 0 500 500 500 0 0 1 500 0Z" style="fill:#8e8e8e;fill-rule:evenodd;stroke-width:4.32901"/><path class="clothes" d="M617.879 785.238a118.831 118.831 0 0 0-25.671-58.831 209.432 209.432 0 0 1-12.987 5.584v63.42a79.437 79.437 0 1 1-158.875 0v-62.9a177.872 177.872 0 0 1-13.55-5.585 118.615 118.615 0 0 0-25.28 58.312 116.32 116.32 0 0 0-1.17 16.58 119.437 119.437 0 0 0 238.875 0 123.03 123.03 0 0 0-1.342-16.58z" style="fill:#fff;fill-opacity:1;stroke-width:4.32901"/><path class="clothes" d="M617.879 785.238a123.03 123.03 0 0 1 1.169 16.58 119.437 119.437 0 0 1-238.875 0 116.32 116.32 0 0 1 1.169-16.58 314.113 314.113 0 0 0-153.333 134.2 500.216 500.216 0 0 0 543.376.346A313.81 313.81 0 0 0 617.88 785.238Z" style="fill:#c6c6c6;fill-opacity:1;stroke-width:4.32901"/><path class="head" d="M711.156 418.831v-98.485q0-9.22-.78-18.311c-8.657-107.62-94.328-192.165-198.528-192.165h-25.454c-104.2 0-189.74 84.459-198.528 192.165q-.78 9.09-.78 18.311v98.485a55.152 55.152 0 0 0-48.874 54.849v3.68a55.281 55.281 0 0 0 48.875 54.891v2.251c0 91.732 55.67 169.784 133.29 198.572v62.9a79.697 79.697 0 0 0 79.48 79.437 79.697 79.697 0 0 0 79.524-79.437v-63.42c76.84-29.177 131.861-106.796 131.861-198.052v-2.25a55.281 55.281 0 0 0 48.875-54.893v-3.68a55.152 55.152 0 0 0-48.961-54.848z" style="fill:#e5e5e5;fill-opacity:1;stroke-width:4.32901"/><path class="top" d="M803.766 305.281a109.74 109.74 0 0 0-1.212-16.536c-4.935-74.676-32.294-121.732-75.8-164.762-49.568-49.005-152.512-75.152-227.75-75.152s-101.688 9.74-171.255 79.35c-43.29 43.29-68.312 56.884-82.9 67.577a113.68 113.68 0 0 0-28.962 201.385 113.636 113.636 0 0 0 77.663 187.273 221.732 221.732 0 0 1-5.758-50.39v-2.251a55.281 55.281 0 0 1-48.874-54.892v-3.68a55.152 55.152 0 0 1 48.874-54.935V313.94h423.81v104.33a55.152 55.152 0 0 1 48.874 54.848v3.68a55.281 55.281 0 0 1-48.874 54.891v2.251a221.212 221.212 0 0 1-5.498 49.178A113.593 113.593 0 0 0 766.58 389.61a113.247 113.247 0 0 0 36.84-75.454v-.346c.216-2.987.346-5.715.346-8.529z" style="fill:#1a1a1a;fill-opacity:1;stroke-width:4.32901"/><path class="mouth" d="M425.844 581.948c0 27.706 9.784 59.913 61.342 59.913h21.645c51.559 0 61.212-32.207 61.342-59.913z" style="fill:#fff;fill-opacity:1;stroke-width:4.32901"/><path class="mouth" d="m576.537 570.476-49.48-21.645a25.974 25.974 0 0 0-29.611 6.277 25.974 25.974 0 0 0-29.61-6.277l-49.524 21.645a25.974 25.974 0 0 0-13.377 34.286l1.299 2.9a25.974 25.974 0 0 0 34.242 13.42l49.48-21.645a24.892 24.892 0 0 0 7.49-4.978 24.892 24.892 0 0 0 7.49 4.978l49.48 21.645a25.974 25.974 0 0 0 34.242-13.42l1.299-2.9a25.974 25.974 0 0 0-13.42-34.286Z" style="fill:#1a1a1a;fill-opacity:1;stroke-width:4.32901"/><rect class="eyes" x="335.714" y="354.416" width="140.693" height="55.195" rx="26.017" style="fill:#1a1a1a;fill-opacity:1;stroke-width:4.32901"/><rect class="eyes" x="528.355" y="354.416" width="132.035" height="55.195" rx="26.017" style="fill:#1a1a1a;fill-opacity:1;stroke-width:4.32901"/><rect class="eyes" x="378.442" y="425.628" width="55.195" height="106.061" rx="26.017" style="fill:#1a1a1a;fill-opacity:1;stroke-width:4.32901"/><rect class="eyes" x="409.87" y="441.645" width="15.498" height="46.061" rx="7.749" style="fill:#fff;fill-opacity:1;stroke-width:4.32901"/><rect class="eyes" x="566.753" y="425.628" width="55.195" height="106.061" rx="26.017" style="fill:#1a1a1a;fill-opacity:1;stroke-width:4.32901"/><rect class="eyes" x="598.182" y="441.645" width="15.498" height="46.061" rx="7.749" style="fill:#fff;fill-opacity:1;stroke-width:4.32901"/></svg>