<svg id="CC_FINAL_AVATARS" data-name="CC FINAL AVATARS" viewBox="0 0 231 231" version="1.1" xmlns="http://www.w3.org/2000/svg"><defs id="defs4"><style id="style2"></style></defs><path d="M115.5 0A115.5 115.5 0 1 1 0 115.5 115.5 115.5 0 0 1 115.5 0Z" id="path6" style="fill:#8e8e8e;fill-rule:evenodd"/><path class="clothes" d="M142.73 181.39a27.45 27.45 0 0 0-5.93-13.59c-1 .47-2 .9-3 1.29v14.65a18.35 18.35 0 1 1-36.7 0v-14.53c-1.07-.39-2.11-.82-3.13-1.29a27.4 27.4 0 0 0-5.84 13.47 26.87 26.87 0 0 0-.27 3.83 27.59 27.59 0 0 0 55.18 0 28.42 28.42 0 0 0-.31-3.83Z" id="path10" style="fill:#fff;fill-opacity:1"/><path class="clothes" d="M142.73 181.39a28.42 28.42 0 0 1 .27 3.83 27.59 27.59 0 0 1-55.18 0 26.87 26.87 0 0 1 .27-3.83 72.56 72.56 0 0 0-35.42 31 115.55 115.55 0 0 0 125.52.08 72.49 72.49 0 0 0-35.46-31.08Z" id="path8" style="fill:#c6c6c6;fill-opacity:1"/><path class="head" d="M164.44 96.62V73.87q0-2.13-.18-4.23c-2-24.86-21.79-44.39-45.86-44.39h-5.88c-24.07 0-43.83 19.51-45.86 44.39q-.18 2.1-.18 4.23v22.75a12.74 12.74 0 0 0-11.29 12.67v.85a12.77 12.77 0 0 0 11.29 12.68v.52c0 21.19 12.86 39.22 30.79 45.87v14.53a18.41 18.41 0 0 0 18.36 18.35A18.41 18.41 0 0 0 134 183.74v-14.65c17.75-6.74 30.46-24.67 30.46-45.75v-.52a12.77 12.77 0 0 0 11.29-12.68v-.85a12.74 12.74 0 0 0-11.31-12.67Z" id="path12" style="fill:#e5e5e5;fill-opacity:1"/><path class="top" d="M185.67 70.52a25.35 25.35 0 0 0-.28-3.82c-1.14-17.25-7.46-28.12-17.51-38.06-11.45-11.32-35.23-17.36-52.61-17.36s-23.49 2.25-39.56 18.33c-10 10-15.78 13.14-19.15 15.61a26.26 26.26 0 0 0-6.69 46.52A26.25 26.25 0 0 0 67.81 135a51.22 51.22 0 0 1-1.33-11.64v-.52a12.77 12.77 0 0 1-11.29-12.68v-.85a12.74 12.74 0 0 1 11.29-12.69v-24.1h97.9v24.1a12.74 12.74 0 0 1 11.29 12.67v.85a12.77 12.77 0 0 1-11.29 12.68v.52a51.1 51.1 0 0 1-1.27 11.36A26.24 26.24 0 0 0 177.08 90a26.16 26.16 0 0 0 8.51-17.43v-.08c.05-.69.08-1.32.08-1.97Z" id="path32" style="fill:#1a1a1a;fill-opacity:1"/><path class="mouth" d="M98.37 134.43c0 6.4 2.26 13.84 14.17 13.84h5c11.91 0 14.14-7.44 14.17-13.84Z" id="path16" style="fill:#fff;fill-opacity:1"/><path class="mouth" d="m133.18 131.78-11.43-5a6 6 0 0 0-6.84 1.45 6 6 0 0 0-6.84-1.45l-11.44 5a6 6 0 0 0-3.09 7.92l.3.67a6 6 0 0 0 7.91 3.1l11.43-5a5.75 5.75 0 0 0 1.73-1.15 5.75 5.75 0 0 0 1.73 1.15l11.43 5a6 6 0 0 0 7.91-3.1l.3-.67a6 6 0 0 0-3.1-7.92z" id="path30" style="fill:#1a1a1a;fill-opacity:1"/><rect class="eyes" x="77.55" y="81.87" width="32.5" height="12.75" rx="6.01" id="rect22" style="fill:#1a1a1a;fill-opacity:1"/><rect class="eyes" x="122.05" y="81.87" width="30.5" height="12.75" rx="6.01" id="rect28" style="fill:#1a1a1a;fill-opacity:1"/><rect class="eyes" x="87.42" y="98.32" width="12.75" height="24.5" rx="6.01" id="rect18" style="fill:#1a1a1a;fill-opacity:1"/><rect class="eyes" x="94.68" y="102.02" width="3.58" height="10.64" rx="1.79" id="rect20" style="fill:#fff;fill-opacity:1"/><rect class="eyes" x="130.92" y="98.32" width="12.75" height="24.5" rx="6.01" id="rect24" style="fill:#1a1a1a;fill-opacity:1"/><rect class="eyes" x="138.18" y="102.02" width="3.58" height="10.64" rx="1.79" id="rect26" style="fill:#fff;fill-opacity:1"/></svg>