<svg id="FINAL_AVATARS" data-name="FINAL AVATARS" xmlns="http://www.w3.org/2000/svg" xmlns:xlink="http://www.w3.org/1999/xlink" viewBox="0 0 231 231"><defs><style>.cls-1{fill:none;clip-rule:evenodd;}.cls-2{fill:#e5e5e5;}.cls-3{clip-path:url(#clip-path);}.cls-4{fill:#8e8e8e;fill-rule:evenodd;}.cls-5{fill:#1a1a1a;}.cls-6{fill:#c6c6c6;}.cls-7,.cls-8{fill:#fff;}.cls-8{stroke:#1a1a1a;stroke-miterlimit:10;stroke-width:4px;}</style><clipPath id="clip-path"><path class="cls-1" d="M115.5,0A115.5,115.5,0,1,1,0,115.5,115.5,115.5,0,0,1,115.5,0Z"/></clipPath></defs><path class="cls-2" d="M164.22,96.62v26.2a12.77,12.77,0,0,0,11.29-12.68v-.85A12.73,12.73,0,0,0,164.22,96.62Z"/><g class="cls-3"><path class="cls-4" d="M115.5,0A115.5,115.5,0,1,1,0,115.5,115.5,115.5,0,0,1,115.5,0Z"/><circle class="cls-5" cx="64.82" cy="70.15" r="26.26"/><circle class="cls-5" cx="69.82" cy="108.81" r="26.26"/><circle class="cls-5" cx="159.42" cy="70.52" r="26.26"/><circle class="cls-5" cx="158.82" cy="108.81" r="26.26"/><circle class="cls-6" cx="115.41" cy="248.31" r="72.28"/><circle class="cls-7" cx="115.41" cy="185.22" r="27.59"/><rect class="cls-2" x="97.06" y="139.13" width="36.71" height="62.96" rx="18.35"/><path class="cls-2" d="M164,69.64c-2-24.86-21.78-44.39-45.86-44.39H112.3c-24.07,0-43.83,19.51-45.86,44.39q-.18,2.1-.18,4.23v49.47c0,26.84,20.61,48.61,46,48.61h5.88c25.42,0,46-21.75,46-48.61V73.87Q164.22,71.74,164,69.64Z"/><path class="cls-5" d="M167.88,28.64c-11.45-11.32-35.23-17.36-52.61-17.36S91.78,13.53,75.71,29.61c-25,25-23.77,7.22-23.77,42.91H185.6C185.6,51.8,179,39.66,167.88,28.64Z"/><path class="cls-2" d="M66.27,96.62v26.2A12.77,12.77,0,0,1,55,110.14v-.85A12.75,12.75,0,0,1,66.27,96.62Z"/><path class="cls-8" d="M98.37,134.43c0,6.4,2.26,13.84,14.17,13.84h5c11.91,0,14.14-7.44,14.17-13.84Z"/><rect class="cls-5" x="87.42" y="98.32" width="12.75" height="24.5" rx="6.01"/><rect class="cls-7" x="94.68" y="102.02" width="3.58" height="10.64" rx="1.79"/><rect class="cls-5" x="77.55" y="81.87" width="32.5" height="12.75" rx="6.01"/><rect class="cls-5" x="130.92" y="98.32" width="12.75" height="24.5" rx="6.01"/><rect class="cls-7" x="138.18" y="102.02" width="3.58" height="10.64" rx="1.79"/><rect class="cls-5" x="122.05" y="81.87" width="30.5" height="12.75" rx="6.01"/><rect class="cls-5" x="92.66" y="128.75" width="24.5" height="12.75" rx="6.01" transform="translate(-45.38 53.4) rotate(-23.64)"/><rect class="cls-5" x="118.53" y="122.88" width="12.75" height="24.5" rx="6.01" transform="translate(-48.96 195.38) rotate(-66.36)"/></g><path class="cls-2" d="M164.22,96.62v26.2a12.77,12.77,0,0,0,11.29-12.68v-.85A12.73,12.73,0,0,0,164.22,96.62Z"/></svg>