<svg data-name="CC FINAL AVATARS" viewBox="0 0 1000 1000" xmlns="http://www.w3.org/2000/svg"><path d="M500 0A500 500 0 1 1 0 500 500 500 0 0 1 500 0Z" style="fill:#a4a4a4;fill-rule:evenodd;stroke-width:4.32901"/><path class="clothes" d="M617.879 785.238a118.831 118.831 0 0 0-25.671-58.831 209.432 209.432 0 0 1-12.987 5.584v63.42a79.437 79.437 0 1 1-158.875 0v-62.9a177.872 177.872 0 0 1-13.55-5.585 118.615 118.615 0 0 0-25.28 58.312 116.32 116.32 0 0 0-1.17 16.58 119.437 119.437 0 0 0 238.875 0 123.03 123.03 0 0 0-1.342-16.58z" style="fill:#e3e3e3;fill-opacity:1;stroke-width:4.32901"/><path class="clothes" d="M617.879 785.238a123.03 123.03 0 0 1 1.169 16.58 119.437 119.437 0 0 1-238.875 0 116.32 116.32 0 0 1 1.169-16.58 314.113 314.113 0 0 0-153.333 134.2 500.216 500.216 0 0 0 543.376.346A313.81 313.81 0 0 0 617.88 785.238Z" style="fill:#646464;fill-opacity:1;stroke-width:4.32901"/><path class="head" d="M711.277 418.268v-98.484q0-9.221-.78-18.312c-8.657-107.62-94.328-192.165-198.527-192.165h-25.455c-104.199 0-189.74 84.46-198.528 192.165q-.78 9.09-.78 18.312v98.484a55.152 55.152 0 0 0-48.874 54.849v3.68a55.281 55.281 0 0 0 48.875 54.891v2.251c0 91.732 55.67 169.784 133.29 198.572v62.9a79.697 79.697 0 0 0 79.48 79.437 79.697 79.697 0 0 0 79.524-79.437v-63.42c76.84-29.177 131.862-106.796 131.862-198.052v-2.25a55.281 55.281 0 0 0 48.874-54.892v-3.68a55.152 55.152 0 0 0-48.96-54.849Z" style="fill:#d3d3d3;fill-opacity:1;stroke-width:4.32901"/><path class="top" d="M858.398 681.385a169.697 169.697 0 0 0-32.684-241.688 126.58 126.58 0 0 0-32.987-183.636 91.991 91.991 0 0 0 19.524-56.624 93.117 93.117 0 0 0-92.9-92.9H279.134a93.16 93.16 0 0 0-92.987 92.9 92.251 92.251 0 0 0 19.524 56.624 126.667 126.667 0 0 0-32.987 183.636A169.784 169.784 0 0 0 140 681.385a232.424 232.424 0 0 0-69.264 77.922A502.424 502.424 0 0 0 226.883 919.87 314.026 314.026 0 0 1 380.39 785.152a119.524 119.524 0 0 1 25.41-58.529c-70.259-32.51-119.393-106.536-119.393-192.77v-2.251a55.281 55.281 0 0 1-48.875-54.892v-3.68a55.152 55.152 0 0 1 49.091-54.762v-2.294l4.33-123.68h416.753l4.329 123.68v2.294a55.152 55.152 0 0 1 48.874 54.849v3.68a55.281 55.281 0 0 1-48.874 54.891v2.251c0 86.234-49.135 160.174-119.394 192.771a119.134 119.134 0 0 1 25.41 58.528 313.81 313.81 0 0 1 153.507 134.719 502.424 502.424 0 0 0 156.148-160.563 231.991 231.991 0 0 0-69.308-78.009z" style="fill:#1a1a1a;fill-opacity:1;stroke-width:4.32901"/><path class="mouth" d="M548.485 588.009v-3.16a25.974 25.974 0 0 0-25.974-25.975h-54.07a25.974 25.974 0 0 0-25.973 25.974v3.16a25.974 25.974 0 0 0 17.013 24.416 25.974 25.974 0 0 0-17.013 24.373v3.16a25.974 25.974 0 0 0 25.974 25.974h54.026a25.974 25.974 0 0 0 25.974-25.974v-3.16a25.974 25.974 0 0 0-17.013-24.373 25.974 25.974 0 0 0 17.056-24.415z" style="fill:#5a5a5a;fill-opacity:1;stroke-width:4.32901"/><circle class="mouth" cx="612.771" cy="587.879" style="fill:#b8b8b8;fill-opacity:1;stroke-width:4.32901" r="29.437"/><rect class="eyes" x="334.675" y="354.416" width="140.693" height="55.195" rx="26.017" style="fill:#1a1a1a;fill-opacity:1;stroke-width:4.32901"/><rect class="eyes" x="527.316" y="354.416" width="132.035" height="55.195" rx="26.017" style="fill:#1a1a1a;fill-opacity:1;stroke-width:4.32901"/><path class="eyes" d="M406.58 425.628h-53.16a7.749 7.749 0 1 0 0 15.454h25.974a25.671 25.671 0 0 0-2.208 10.476v54.026a25.974 25.974 0 0 0 25.974 25.974h3.16a25.974 25.974 0 0 0 25.974-25.974v-53.939a25.974 25.974 0 0 0-25.714-26.017z" style="fill:#1a1a1a;fill-opacity:1;stroke-width:4.32901"/><rect class="eyes" x="408.831" y="441.645" width="15.498" height="46.061" rx="7.749" style="fill:#fff;fill-opacity:1;stroke-width:4.32901"/><path class="eyes" d="M645.498 425.714h-53.766a25.974 25.974 0 0 0-25.974 25.974v54.026a25.974 25.974 0 0 0 25.974 25.974h3.16a25.974 25.974 0 0 0 25.974-25.974v-54.069a25.671 25.671 0 0 0-2.208-10.476h26.797a7.749 7.749 0 1 0 0-15.455z" style="fill:#1a1a1a;fill-opacity:1;stroke-width:4.32901"/><rect class="eyes" x="597.143" y="441.645" width="15.498" height="46.061" rx="7.749" style="fill:#fff;fill-opacity:1;stroke-width:4.32901"/></svg>