<svg id="FINAL_AVATARS" data-name="FINAL AVATARS" xmlns="http://www.w3.org/2000/svg" xmlns:xlink="http://www.w3.org/1999/xlink" viewBox="0 0 231 231"><defs><style>.cls-1{fill:none;clip-rule:evenodd;}.cls-2{fill:#ddd;}.cls-3{clip-path:url(#clip-path);}.cls-4{fill:#2c2c2c;fill-rule:evenodd;}.cls-5{fill:#434343;}.cls-6{fill:#949494;}.cls-7{fill:silver;}.cls-10,.cls-8{fill:#fff;}.cls-8{stroke:#1a1a1a;stroke-miterlimit:10;stroke-width:4px;}.cls-9{fill:#1a1a1a;}.cls-11{fill:#b8b8b8;}</style><clipPath id="clip-path"><path class="cls-1" d="M115.5,0A115.5,115.5,0,1,1,0,115.5,115.5,115.5,0,0,1,115.5,0Z"/></clipPath></defs><path class="cls-2" d="M66.27,96.62v26.2A12.77,12.77,0,0,1,55,110.14v-.85A12.75,12.75,0,0,1,66.27,96.62Z"/><g class="cls-3"><path class="cls-4" d="M115.5,0A115.5,115.5,0,1,1,0,115.5,115.5,115.5,0,0,1,115.5,0Z"/><path class="cls-5" d="M49.55,48.2v84.55c0,6.42,5.53,11.66,12.38,11.66h0c6.82,0,12.39-5.21,12.39-11.66V48.2c0-6.41-5.53-11.65-12.39-11.65h0C55.08,36.55,49.55,41.79,49.55,48.2Z"/><path class="cls-5" d="M155.72,48.2v84.55c0,6.42,5.52,11.66,12.38,11.66h0c6.82,0,12.38-5.21,12.38-11.66V48.2c0-6.41-5.53-11.65-12.38-11.65h0C161.24,36.55,155.72,41.79,155.72,48.2Z"/><circle class="cls-5" cx="65.29" cy="92.46" r="30.13"/><circle class="cls-6" cx="115.41" cy="248.31" r="72.28"/><circle class="cls-7" cx="115.41" cy="185.22" r="27.59"/><rect class="cls-2" x="97.06" y="139.13" width="36.71" height="62.96" rx="18.35"/><path class="cls-2" d="M164,69.64c-2-24.86-21.78-44.39-45.86-44.39H112.3c-24.07,0-43.83,19.51-45.86,44.39q-.18,2.1-.18,4.23v49.47c0,26.84,20.61,48.61,46,48.61h5.88c25.42,0,46-21.75,46-48.61V73.87Q164.22,71.74,164,69.64Z"/><path class="cls-2" d="M164.22,96.62v26.2a12.77,12.77,0,0,0,11.29-12.68v-.85A12.73,12.73,0,0,0,164.22,96.62Z"/><path class="cls-8" d="M98.37,134.43c0,6.4,2.26,13.84,14.17,13.84h5c11.91,0,14.14-7.44,14.17-13.84Z"/><rect class="cls-9" x="87.42" y="98.32" width="12.75" height="24.5" rx="6.01"/><rect class="cls-10" x="94.68" y="102.02" width="3.58" height="10.64" rx="1.79"/><rect class="cls-9" x="77.55" y="81.87" width="32.5" height="12.75" rx="6.01"/><rect class="cls-9" x="130.92" y="98.32" width="12.75" height="24.5" rx="6.01"/><rect class="cls-10" x="138.18" y="102.02" width="3.58" height="10.64" rx="1.79"/><rect class="cls-9" x="122.05" y="81.87" width="30.5" height="12.75" rx="6.01"/><path class="cls-5" d="M163,21.11H77.83a24.14,24.14,0,0,0-3.53-.27c-13.67,0-24.75,11.76-24.75,26.26S60.63,73.36,74.3,73.36A24.4,24.4,0,0,0,95,61.5a26.08,26.08,0,0,0,22.06,12.15h46a26.1,26.1,0,0,0,26.1-26.1v-.34A26.11,26.11,0,0,0,163,21.11Z"/><rect class="cls-11" x="140.29" y="129.01" width="16.02" height="8.34" rx="3.93"/></g><path class="cls-2" d="M66.27,96.62v26.2A12.77,12.77,0,0,1,55,110.14v-.85A12.75,12.75,0,0,1,66.27,96.62Z"/></svg>