<svg data-name="CC FINAL AVATARS" viewBox="0 0 1000 1000" xmlns="http://www.w3.org/2000/svg"><path d="M500 .003A500 499.998 0 1 1 0 500 500 499.998 0 0 1 500 .003Z" style="fill:#9e9e9e;fill-rule:evenodd;stroke-width:4.32901"/><path class="clothes" d="M617.879 785.238a118.831 118.83 0 0 0-25.671-58.83 209.438 209.438 0 0 1-12.987 5.583v63.42a79.437 79.437 0 1 1-158.875 0v-62.9a177.872 177.872 0 0 1-13.55-5.584 118.615 118.614 0 0 0-25.28 58.311 116.32 116.32 0 0 0-1.17 16.58 119.437 119.437 0 0 0 238.875 0 123.03 123.03 0 0 0-1.342-16.58z" style="fill:#919191;fill-opacity:1;stroke-width:4.32901"/><path class="clothes" d="M617.879 785.238a123.03 123.03 0 0 1 1.169 16.58 119.437 119.437 0 0 1-238.875 0 116.32 116.32 0 0 1 1.169-16.58 314.113 314.111 0 0 0-153.333 134.199 500.216 500.215 0 0 0 543.376.346A313.81 313.808 0 0 0 617.88 785.238z" style="fill:#353535;fill-opacity:1;stroke-width:4.32901"/><path class="head" d="M711.861 418.27v-98.485q0-9.22-.779-18.312c-8.658-107.618-94.329-192.163-198.528-192.163H487.1c-104.2 0-189.74 84.458-198.529 192.163q-.779 9.091-.779 18.312v98.485a55.152 55.151 0 0 0-48.874 54.848v3.68a55.281 55.281 0 0 0 48.874 54.891v2.251c0 91.731 55.671 169.783 133.29 198.57v62.901a79.697 79.697 0 0 0 79.48 79.437 79.697 79.697 0 0 0 79.525-79.437v-63.42c76.84-29.177 131.861-106.796 131.861-198.05v-2.252a55.281 55.281 0 0 0 48.875-54.891v-3.68a55.152 55.151 0 0 0-48.962-54.848z" style="fill:#efefef;fill-opacity:1;stroke-width:4.32901"/><path class="top" d="M880.563 346.062a159.697 159.696 0 0 0-64.935-128.787 168.182 168.181 0 0 0-5.282-109.394 499.957 499.955 0 0 0-620.433 0 168.182 168.181 0 0 0-5.281 109.394 160.173 160.173 0 0 0 4.329 260.561 126.667 126.666 0 0 0 148.701 195.108 216.45 216.45 0 0 1-49.74-139.004v-2.25a55.281 55.281 0 0 1-48.874-54.892v-3.68a55.152 55.151 0 0 1 48.744-54.848v-89.827a168.052 168.051 0 0 0 58.528 10.52c4.33 0 8.355 0 12.511-.477 2.165 0 4.33-.433 6.45-.692 2.122-.26 3.853-.347 5.758-.65 2.9-.433 5.8-.995 8.658-1.601l3.16-.563a201.01 201.01 0 0 0 10.043-2.598c.477 0 .996-.26 1.472-.39q5.455-1.688 10.78-3.636h.39a168.831 168.83 0 0 0 37.878-20.173l2.208-1.558a132.779 132.779 0 0 0 7.316-5.714l2.12-1.732c3.075-2.597 6.018-5.281 8.659-8.095.476-.39.909-.823 1.342-1.256a164.502 164.502 0 0 0 12.987-14.545c.996-1.212 2.035-2.424 2.987-3.723a159.004 159.004 0 0 0 11.126-16.97l.39-.649c2.51-4.329 4.934-8.96 7.055-13.636 2.122 4.675 4.33 9.177 7.057 13.636l.39.65a159.004 159.004 0 0 0 11.125 16.97c.952 1.298 1.991 2.51 2.987 3.722a164.502 164.502 0 0 0 12.987 14.545c.433.433.866.866 1.342 1.256 2.857 2.814 5.8 5.498 8.658 8.095l2.121 1.732a144.64 144.64 0 0 0 7.662 5.93l1.862 1.342a167.792 167.792 0 0 0 37.835 20.173h.39q5.325 1.948 10.78 3.637l1.514.39q4.935 1.428 10 2.597l3.247.606c2.857.563 5.714 1.125 8.658 1.558 1.905.303 3.853.433 5.758.65 1.904.216 4.329.562 6.45.692 4.329.303 8.312.476 12.51.476a168.182 168.181 0 0 0 58.356-10.39v89.698a55.152 55.151 0 0 1 48.874 54.848v3.68a55.281 55.281 0 0 1-48.874 54.891v2.251a216.45 216.45 0 0 1-48.961 138.917 126.667 126.666 0 0 0 149.134-195.02 159.827 159.826 0 0 0 69.09-131.775z" style="fill:#1a1a1a;fill-opacity:1;stroke-width:4.32901"/><rect class="mouth" x="607.316" y="558.486" width="69.351" height="36.104" rx="17.013" style="fill:#9e9e9e;fill-opacity:1;stroke-width:4.32901"/><path class="mouth" d="M425.844 581.949c0 27.705 9.784 59.913 61.342 59.913h21.645c51.559 0 61.212-32.208 61.342-59.913z" style="fill:#fff;fill-opacity:1;stroke-width:4.32901"/><rect class="eyes" x="335.714" y="354.417" width="140.693" height="55.195" rx="26.017" style="fill:#5e5e5e;fill-opacity:1;stroke-width:4.32901"/><rect class="eyes" x="528.355" y="354.417" width="132.035" height="55.195" rx="26.017" style="fill:#5e5e5e;fill-opacity:1;stroke-width:4.32901"/><rect class="eyes" x="378.442" y="425.629" width="55.195" height="106.06" rx="26.017" style="fill:#1a1a1a;fill-opacity:1;stroke-width:4.32901"/><rect class="eyes" x="409.87" y="441.646" width="15.498" height="46.06" rx="7.749" style="fill:#fff;fill-opacity:1;stroke-width:4.32901"/><rect class="eyes" x="566.753" y="425.629" width="55.195" height="106.06" rx="26.017" style="fill:#1a1a1a;fill-opacity:1;stroke-width:4.32901"/><rect class="eyes" x="598.182" y="441.646" width="15.498" height="46.06" rx="7.749" style="fill:#fff;fill-opacity:1;stroke-width:4.32901"/></svg>