<svg id="CC_FINAL_AVATARS" data-name="CC FINAL AVATARS" xmlns="http://www.w3.org/2000/svg" viewBox="0 0 231 231"><defs><style>.cls-1,.cls-5{fill:#9e9e9e;}.cls-1{fill-rule:evenodd;}.cls-2{fill:#353535;}.cls-3{fill:#919191;}.cls-4{fill:#efefef;}.cls-6{fill:#fff;}.cls-7{fill:#1a1a1a;}.cls-8{fill:#5e5e5e;}.cls-9{fill:none;}.cls-10{fill:#d3d3d3;}</style></defs><path class="cls-1" d="M115.5,0A115.5,115.5,0,1,1,0,115.5,115.5,115.5,0,0,1,115.5,0Z"/><path class="cls-2" d="M142.73,181.39a28.42,28.42,0,0,1,.27,3.83,27.59,27.59,0,0,1-55.18,0,26.87,26.87,0,0,1,.27-3.83,72.56,72.56,0,0,0-35.42,31,115.55,115.55,0,0,0,125.52.08A72.49,72.49,0,0,0,142.73,181.39Z"/><path class="cls-3" d="M142.73,181.39a27.45,27.45,0,0,0-5.93-13.59c-1,.47-2,.9-3,1.29v14.65a18.35,18.35,0,1,1-36.7,0V169.21c-1.07-.39-2.11-.82-3.13-1.29a27.4,27.4,0,0,0-5.84,13.47,26.87,26.87,0,0,0-.27,3.83,27.59,27.59,0,0,0,55.18,0A28.42,28.42,0,0,0,142.73,181.39Z"/><path class="cls-4" d="M164.44,96.62V73.87q0-2.13-.18-4.23c-2-24.86-21.79-44.39-45.86-44.39h-5.88c-24.07,0-43.83,19.51-45.86,44.39q-.18,2.1-.18,4.23V96.62a12.74,12.74,0,0,0-11.29,12.67v.85a12.77,12.77,0,0,0,11.29,12.68v.52c0,21.19,12.86,39.22,30.79,45.87v14.53a18.41,18.41,0,0,0,18.36,18.35h0A18.41,18.41,0,0,0,134,183.74V169.09c17.75-6.74,30.46-24.67,30.46-45.75v-.52a12.77,12.77,0,0,0,11.29-12.68v-.85A12.74,12.74,0,0,0,164.44,96.62Z"/><rect class="cls-5" x="140.29" y="129.01" width="16.02" height="8.34" rx="3.93"/><path class="cls-6" d="M98.37,134.43c0,6.4,2.26,13.84,14.17,13.84h5c11.91,0,14.14-7.44,14.17-13.84Z"/><rect class="cls-7" x="87.42" y="98.32" width="12.75" height="24.5" rx="6.01"/><rect class="cls-6" x="94.68" y="102.02" width="3.58" height="10.64" rx="1.79"/><rect class="cls-8" x="77.55" y="81.87" width="32.5" height="12.75" rx="6.01"/><rect class="cls-7" x="130.92" y="98.32" width="12.75" height="24.5" rx="6.01"/><rect class="cls-6" x="138.18" y="102.02" width="3.58" height="10.64" rx="1.79"/><rect class="cls-8" x="122.05" y="81.87" width="30.5" height="12.75" rx="6.01"/><path class="cls-9" d="M124.24,67.66c.42.39.84.79,1.28,1.17C125.08,68.45,124.66,68.05,124.24,67.66Z"/><path class="cls-9" d="M128.52,71.16c.5.35,1,.7,1.51,1C129.52,71.86,129,71.51,128.52,71.16Z"/><path class="cls-9" d="M126.32,69.48c.46.38.92.75,1.39,1.11C127.24,70.23,126.78,69.86,126.32,69.48Z"/><path class="cls-10" d="M125.52,68.83l.8.65Z"/><path class="cls-10" d="M127.71,70.59l.81.57Z"/><path class="cls-10" d="M124.24,67.66l-.77-.74Z"/><path class="cls-7" d="M203.41,79.94a36.89,36.89,0,0,0-15-29.75,38.85,38.85,0,0,0-1.22-25.27,115.49,115.49,0,0,0-143.32,0,38.85,38.85,0,0,0-1.22,25.27,37,37,0,0,0,1,60.19A29.26,29.26,0,0,0,78,155.45a50,50,0,0,1-11.49-32.11v-.52a12.77,12.77,0,0,1-11.29-12.68v-.85A12.74,12.74,0,0,1,66.48,96.62V75.87A38.82,38.82,0,0,0,80,78.3c1,0,1.93,0,2.89-.11.5,0,1-.1,1.49-.16s.89-.08,1.33-.15c.67-.1,1.34-.23,2-.37l.73-.13c.78-.18,1.55-.38,2.32-.6.11,0,.23-.06.34-.09q1.26-.39,2.49-.84l.09,0a39,39,0,0,0,8.75-4.66h0l.51-.36c.58-.42,1.14-.86,1.69-1.32h0l.49-.4c.71-.6,1.39-1.22,2-1.87.11-.09.21-.19.31-.29h0a38,38,0,0,0,3-3.36h0c.23-.28.47-.56.69-.86h0a36.73,36.73,0,0,0,2.57-3.92h0l.09-.15c.58-1,1.14-2.07,1.63-3.15.49,1.08,1,2.12,1.63,3.15l.09.15h0a36.73,36.73,0,0,0,2.57,3.92h0c.22.3.46.58.69.86h0a38,38,0,0,0,3,3.36h0c.1.1.2.2.31.29.66.65,1.34,1.27,2,1.87l.49.4h0c.58.48,1.16.93,1.77,1.37l.43.31h0a38.76,38.76,0,0,0,8.74,4.66l.09,0q1.23.45,2.49.84l.35.09q1.14.33,2.31.6l.75.14c.66.13,1.32.26,2,.36.44.07.89.1,1.33.15s1,.13,1.49.16c1,.07,1.92.11,2.89.11a38.85,38.85,0,0,0,13.48-2.4V96.62a12.74,12.74,0,0,1,11.29,12.67v.85a12.77,12.77,0,0,1-11.29,12.68v.52A50,50,0,0,1,153,155.43a29.26,29.26,0,0,0,34.45-45.05A36.92,36.92,0,0,0,203.41,79.94Z"/></svg>