<svg id="FINAL_AVATARS" data-name="FINAL AVATARS" xmlns="http://www.w3.org/2000/svg" xmlns:xlink="http://www.w3.org/1999/xlink" viewBox="0 0 231 231"><defs><style>.cls-1{fill:none;clip-rule:evenodd;}.cls-2{clip-path:url(#clip-path);}.cls-3{fill:#9f9f9f;fill-rule:evenodd;}.cls-4{fill:#fff;}.cls-5{fill:#1a1a1a;}.cls-6{fill:#585858;}.cls-7{fill:#b8b8b8;}.cls-8{fill:#7c7c7c;}.cls-10,.cls-9{fill:#b3b3b3;}.cls-10{stroke:#1a1a1a;stroke-miterlimit:10;stroke-width:6.06px;}</style><clipPath id="clip-path"><path class="cls-1" d="M115.5,0A115.5,115.5,0,1,1,0,115.5,115.5,115.5,0,0,1,115.5,0Z"/></clipPath></defs><g class="cls-2"><path class="cls-3" d="M115.5,0A115.5,115.5,0,1,1,0,115.5,115.5,115.5,0,0,1,115.5,0Z"/><path class="cls-4" d="M52,72.4h126.5a0,0,0,0,1,0,0v30.84a9.15,9.15,0,0,1-9.15,9.15H61.16A9.15,9.15,0,0,1,52,103.24V72.4a0,0,0,0,1,0,0Z"/><circle class="cls-5" cx="115.5" cy="248.31" r="72.28"/><circle class="cls-4" cx="115.5" cy="185.22" r="27.59"/><rect class="cls-6" x="97.15" y="139.13" width="36.71" height="62.96" rx="18.35"/><path class="cls-6" d="M164.14,69.64c-2-24.86-21.79-44.39-45.87-44.39H112.4c-24.08,0-43.84,19.51-45.87,44.39q-.18,2.1-.18,4.23v49.47C66.35,150.18,87,172,112.4,172h5.87c25.42,0,46-21.75,46-48.61V73.87C164.31,72.45,164.25,71,164.14,69.64Z"/><circle class="cls-7" cx="141.55" cy="135.8" r="6.8"/><rect class="cls-8" x="102.54" y="129.09" width="24.5" height="12.75" rx="6.01"/><rect class="cls-8" x="102.54" y="141.09" width="24.5" height="12.75" rx="6.01"/><path class="cls-6" d="M164.31,96.62v26.2a12.77,12.77,0,0,0,11.3-12.68v-.85A12.75,12.75,0,0,0,164.31,96.62Z"/><path class="cls-4" d="M159.93,29.61A63.36,63.36,0,0,0,52,72.52H178.69A63.17,63.17,0,0,0,159.93,29.61Z"/><path class="cls-6" d="M66.36,96.62v26.2a12.77,12.77,0,0,1-11.29-12.68v-.85A12.73,12.73,0,0,1,66.36,96.62Z"/><rect class="cls-5" x="105.12" y="95.06" width="17.2" height="14.44"/><rect class="cls-9" x="64.3" y="82.7" width="46.07" height="33.17" rx="15.21"/><rect class="cls-5" x="55.77" y="98.33" width="11.06" height="7.96" rx="3.39"/><rect class="cls-10" x="64.3" y="87.56" width="46.07" height="33.17" rx="15.21"/><polygon class="cls-5" points="67.73 113.69 83.51 87.56 95.4 87.56 75.74 120.11 67.73 113.69"/><polygon class="cls-5" points="79.46 120.11 99.11 87.56 109.33 97.65 95.76 120.11 79.46 120.11"/><rect class="cls-9" x="120.76" y="82.7" width="46.07" height="33.17" rx="15.21"/><rect class="cls-5" x="164.56" y="98.33" width="11.06" height="7.96" rx="3.39"/><rect class="cls-10" x="120.76" y="87.56" width="46.07" height="33.17" rx="15.21"/><polygon class="cls-5" points="124.19 113.69 139.97 87.56 151.86 87.56 132.2 120.11 124.19 113.69"/><polygon class="cls-5" points="135.91 120.11 155.57 87.56 165.78 97.65 152.22 120.11 135.91 120.11"/></g></svg>