<svg id="etapa_2_cc" data-name="etapa 2 cc" xmlns="http://www.w3.org/2000/svg" viewBox="0 0 231 231"><defs><style>.cls-1{fill:#2c2c2c;fill-rule:evenodd;}.cls-2{fill:#ddd;}.cls-3{fill:#949494;}.cls-4{fill:silver;}.cls-5{fill:#fff;}.cls-6{fill:#1a1a1a;}.cls-7{fill:#434343;}.cls-8{fill:#b8b8b8;}</style></defs><path class="cls-1" d="M115.5,0A115.5,115.5,0,1,1,0,115.5,115.5,115.5,0,0,1,115.5,0Z"/><path class="cls-2" d="M164.25,96.62V73.87q0-2.13-.18-4.23c-2-24.86-21.78-44.39-45.86-44.39h-5.88c-24.07,0-43.83,19.51-45.86,44.39q-.18,2.1-.18,4.23V96.62A12.74,12.74,0,0,0,55,109.29v.85a12.77,12.77,0,0,0,11.29,12.68v.52c0,21.19,12.86,39.22,30.79,45.87v14.53a18.41,18.41,0,0,0,18.36,18.35h0a18.41,18.41,0,0,0,18.35-18.35V169.09c17.75-6.74,30.46-24.67,30.46-45.75v-.52a12.77,12.77,0,0,0,11.29-12.68v-.85A12.73,12.73,0,0,0,164.25,96.62Z"/><path class="cls-3" d="M142.73,181.39a28.42,28.42,0,0,1,.27,3.83,27.59,27.59,0,0,1-55.18,0,26.87,26.87,0,0,1,.27-3.83,72.56,72.56,0,0,0-35.42,31,115.55,115.55,0,0,0,125.52.08A72.49,72.49,0,0,0,142.73,181.39Z"/><path class="cls-4" d="M142.73,181.39a27.45,27.45,0,0,0-5.93-13.59c-1,.47-2,.9-3,1.29v14.65a18.35,18.35,0,1,1-36.7,0V169.21c-1.07-.39-2.11-.82-3.13-1.29a27.4,27.4,0,0,0-5.84,13.47,26.87,26.87,0,0,0-.27,3.83,27.59,27.59,0,0,0,55.18,0A28.42,28.42,0,0,0,142.73,181.39Z"/><path class="cls-5" d="M98.37,134.43c0,6.4,2.26,13.84,14.17,13.84h5c11.91,0,14.14-7.44,14.17-13.84Z"/><rect class="cls-6" x="87.42" y="98.32" width="12.75" height="24.5" rx="6.01"/><rect class="cls-5" x="94.68" y="102.02" width="3.58" height="10.64" rx="1.79"/><rect class="cls-6" x="77.55" y="81.87" width="32.5" height="12.75" rx="6.01"/><rect class="cls-6" x="130.92" y="98.32" width="12.75" height="24.5" rx="6.01"/><rect class="cls-5" x="138.18" y="102.02" width="3.58" height="10.64" rx="1.79"/><rect class="cls-6" x="122.05" y="81.87" width="30.5" height="12.75" rx="6.01"/><path class="cls-7" d="M85.76,70.36a30,30,0,0,0-11.44-6.65v9.65A23.37,23.37,0,0,0,85.76,70.36Z"/><path class="cls-7" d="M163,21.11H77.83a24.14,24.14,0,0,0-3.53-.27c-13.67,0-24.75,11.76-24.75,26.26,0,.22,0,.43,0,.65s0,.3,0,.45V66.76a30.14,30.14,0,0,0,0,51.39v14.6c0,6.42,5.53,11.66,12.38,11.66a12.8,12.8,0,0,0,7.8-2.61,50.94,50.94,0,0,1-3.44-18.46v-.52a12.26,12.26,0,0,1-1.37-.25A12.75,12.75,0,0,1,55,110.14v-.85A12.74,12.74,0,0,1,66.29,96.62V73.87c0-.64,0-1.27,0-1.91a23.48,23.48,0,0,0,8,1.4h0A24.4,24.4,0,0,0,95,61.5a26.08,26.08,0,0,0,22.06,12.15h46q.61,0,1.23,0v23a12.73,12.73,0,0,1,11.29,12.67v.85a12.77,12.77,0,0,1-11.29,12.68v.52a50.72,50.72,0,0,1-3.55,18.74,12.84,12.84,0,0,0,7.4,2.33c6.82,0,12.38-5.21,12.38-11.66V66.94a26,26,0,0,0,8.64-19.39v-.34A26.11,26.11,0,0,0,163,21.11Z"/><rect class="cls-8" x="140.29" y="129.01" width="16.02" height="8.34" rx="3.93"/></svg>