<svg id="FINAL_AVATARS" data-name="FINAL AVATARS" viewBox="0 0 231 231" version="1.1" xmlns="http://www.w3.org/2000/svg"><defs id="defs7"><clipPath id="clip-path"><path d="M115.5 0A115.5 115.5 0 1 1 0 115.5 115.5 115.5 0 0 1 115.5 0Z" id="path4" style="fill:none;clip-rule:evenodd"/></clipPath><style id="style2"></style></defs><g clip-path="url(#clip-path)" id="g55" style="clip-path:url(#clip-path)"><path d="M115.5 0A115.5 115.5 0 1 1 0 115.5 115.5 115.5 0 0 1 115.5 0Z" id="path9" style="fill:#9f9f9f;fill-rule:evenodd"/><path class="top" d="M52 72.4h126.5v30.84a9.15 9.15 0 0 1-9.15 9.15H61.16a9.15 9.15 0 0 1-9.16-9.15V72.4Z" id="path11" style="fill:#fff"/><circle class="clothes" cx="115.5" cy="248.31" r="72.28" id="circle13" style="fill:#1a1a1a"/><circle class="clothes" cx="115.5" cy="185.22" r="27.59" id="circle15" style="fill:#fff"/><rect class="head" x="97.15" y="139.13" width="36.71" height="62.96" rx="18.35" id="rect17" style="fill:#585858"/><path class="head" d="M66.492 69.64c2-24.86 21.79-44.39 45.87-44.39h5.87c24.08 0 43.84 19.51 45.87 44.39q.18 2.1.18 4.23v49.47c0 26.84-20.65 48.66-46.05 48.66h-5.87c-25.42 0-46-21.75-46-48.61V73.87c-.04-1.42.02-2.87.13-4.23z" id="path19" style="fill:#585858"/><circle class="mouth" cx="141.55" cy="135.8" r="6.8" id="circle21" style="fill:#7c7c7c"/><rect class="mouth" x="102.54" y="129.09" width="24.5" height="12.75" rx="6.01" id="rect23" style="fill:#7c7c7c"/><rect class="mouth" x="102.54" y="141.09" width="24.5" height="12.75" rx="6.01" id="rect25" style="fill:#7c7c7c"/><path class="head" d="M164.31 96.62v26.2a12.77 12.77 0 0 0 11.3-12.68v-.85a12.75 12.75 0 0 0-11.3-12.67Z" id="path27" style="fill:#585858"/><path class="top" d="M159.93 29.61A63.36 63.36 0 0 0 52 72.52h126.69a63.17 63.17 0 0 0-18.76-42.91Z" id="path29" style="fill:#fff"/><path class="head" d="M66.36 96.62v26.2a12.77 12.77 0 0 1-11.29-12.68v-.85a12.73 12.73 0 0 1 11.29-12.67Z" id="path31" style="fill:#585858"/><path class="eyes" id="rect33" style="fill:#1a1a1a" d="M105.12 95.06h17.2v14.44h-17.2z"/><rect class="eyes" x="64.3" y="82.7" width="46.07" height="33.17" rx="15.21" id="rect35" style="fill:#b8b8b8"/><rect class="eyes" x="55.77" y="98.33" width="11.06" height="7.96" rx="3.39" id="rect37" style="fill:#1a1a1a"/><rect class="eyes" x="64.3" y="87.56" width="46.07" height="33.17" rx="15.21" id="rect39" style="fill:#b8b8b8;stroke:#1a1a1a;stroke-width:6.06;stroke-miterlimit:4;stroke-dasharray:none"/><path class="eyes" id="polygon41" style="fill:#1a1a1a" d="m67.73 113.69 15.78-26.13H95.4l-19.66 32.55-8.01-6.42z"/><path class="eyes" id="polygon43" style="fill:#1a1a1a" d="m79.46 120.11 19.65-32.55 10.22 10.09-13.57 22.46h-16.3z"/><rect class="eyes" x="120.76" y="82.7" width="46.07" height="33.17" rx="15.21" id="rect45" style="fill:#b8b8b8"/><rect class="eyes" x="164.56" y="98.33" width="11.06" height="7.96" rx="3.39" id="rect47" style="fill:#1a1a1a"/><rect class="eyes" x="120.76" y="87.56" width="46.07" height="33.17" rx="15.21" id="rect49" style="stroke-width:6.06;stroke-miterlimit:10;stroke-dasharray:none;fill:#b8b8b8;stroke:#1a1a1a"/><path class="eyes" id="polygon51" style="fill:#1a1a1a" d="m124.19 113.69 15.78-26.13h11.89l-19.66 32.55-8.01-6.42z"/><path class="eyes" id="polygon53" style="fill:#1a1a1a" d="m135.91 120.11 19.66-32.55 10.21 10.09-13.56 22.46h-16.31z"/></g></svg>