<svg data-name="etapa 2 cc" viewBox="0 0 1000 1000" xmlns="http://www.w3.org/2000/svg"><path d="M500 0A500 500 0 1 1 0 500 500 500 0 0 1 500 0Z" style="fill:#2c2c2c;fill-rule:evenodd;stroke-width:4.32901"/><path class="head" d="M711.039 418.268v-98.484q0-9.221-.78-18.312c-8.657-107.62-94.285-192.165-198.527-192.165h-25.455c-104.2 0-189.74 84.46-198.528 192.165q-.78 9.09-.78 18.312v98.484a55.152 55.152 0 0 0-48.874 54.849v3.68a55.281 55.281 0 0 0 48.875 54.891v2.251c0 91.732 55.67 169.784 133.29 198.572v62.9a79.697 79.697 0 0 0 79.48 79.437 79.697 79.697 0 0 0 79.437-79.437v-63.42c76.84-29.177 131.862-106.796 131.862-198.052v-2.25a55.281 55.281 0 0 0 48.874-54.892v-3.68a55.108 55.108 0 0 0-48.874-54.849Z" style="fill:#ddd;fill-opacity:1;stroke-width:4.32901"/><path class="top" d="M705.628 91.385H336.926a104.502 104.502 0 0 0-15.281-1.169c-59.177 0-107.143 50.91-107.143 113.68v85.108a130.476 130.476 0 0 0 0 222.468v63.203c0 27.793 23.94 50.477 53.593 50.477a55.411 55.411 0 0 0 33.766-11.3 220.52 220.52 0 0 1-14.891-79.913v-2.25a53.074 53.074 0 0 1-5.931-1.083 55.195 55.195 0 0 1-42.944-53.81v-3.68a55.152 55.152 0 0 1 48.875-54.848V311.515a101.645 101.645 0 0 0 34.632 6.06 105.628 105.628 0 0 0 89.653-51.341 112.9 112.9 0 0 0 95.498 52.597h204.46v99.567a55.108 55.108 0 0 1 48.874 54.849v3.68a55.281 55.281 0 0 1-48.875 54.891v2.251a219.567 219.567 0 0 1-15.368 81.126 55.584 55.584 0 0 0 32.035 10.086c29.524 0 53.593-22.554 53.593-50.476V289.784a112.554 112.554 0 0 0 37.402-83.94v-1.472A113.03 113.03 0 0 0 705.628 91.385Z" style="fill:#434343;fill-opacity:1;stroke-width:4.32901"/><path class="clothes" d="M617.879 785.238a118.831 118.831 0 0 0-25.671-58.831 209.432 209.432 0 0 1-12.987 5.584v63.42a79.437 79.437 0 1 1-158.875 0v-62.9a177.872 177.872 0 0 1-13.55-5.585 118.615 118.615 0 0 0-25.28 58.312 116.32 116.32 0 0 0-1.17 16.58 119.437 119.437 0 0 0 238.875 0 123.03 123.03 0 0 0-1.342-16.58z" style="fill:silver;fill-opacity:1;stroke-width:4.32901"/><path class="clothes" d="M617.879 785.238a123.03 123.03 0 0 1 1.169 16.58 119.437 119.437 0 0 1-238.875 0 116.32 116.32 0 0 1 1.169-16.58 314.113 314.113 0 0 0-153.333 134.2 500.216 500.216 0 0 0 543.376.346A313.81 313.81 0 0 0 617.88 785.238Z" style="fill:#949494;fill-opacity:1;stroke-width:4.32901"/><rect class="mouth" x="607.316" y="558.485" width="69.351" height="36.104" rx="17.013" style="fill:#b8b8b8;fill-opacity:1;stroke-width:4.32901"/><path class="mouth" d="M425.844 581.948c0 27.706 9.784 59.913 61.342 59.913h21.645c51.559 0 61.212-32.207 61.342-59.913z" style="fill:#fff;fill-opacity:1;stroke-width:4.32901"/><rect class="eyes" x="335.714" y="354.416" width="140.693" height="55.195" rx="26.017" style="fill:#1a1a1a;fill-opacity:1;stroke-width:4.32901"/><rect class="eyes" x="528.355" y="354.416" width="132.035" height="55.195" rx="26.017" style="fill:#1a1a1a;fill-opacity:1;stroke-width:4.32901"/><rect class="eyes" x="378.442" y="425.628" width="55.195" height="106.061" rx="26.017" style="fill:#1a1a1a;fill-opacity:1;stroke-width:4.32901"/><rect class="eyes" x="409.87" y="441.645" width="15.498" height="46.061" rx="7.749" style="fill:#fff;fill-opacity:1;stroke-width:4.32901"/><rect class="eyes" x="566.753" y="425.628" width="55.195" height="106.061" rx="26.017" style="fill:#1a1a1a;fill-opacity:1;stroke-width:4.32901"/><rect class="eyes" x="598.182" y="441.645" width="15.498" height="46.061" rx="7.749" style="fill:#fff;fill-opacity:1;stroke-width:4.32901"/></svg>