<svg id="FINAL_AVATARS" data-name="FINAL AVATARS" xmlns="http://www.w3.org/2000/svg" xmlns:xlink="http://www.w3.org/1999/xlink" viewBox="0 0 231 231"><defs><style>.cls-1,.cls-8{fill:none;}.cls-1{clip-rule:evenodd;}.cls-2{clip-path:url(#clip-path);}.cls-3{fill:#a4a4a4;}.cls-3,.cls-4,.cls-5,.cls-6{fill-rule:evenodd;}.cls-12,.cls-4{fill:#d3d3d3;}.cls-13,.cls-5{fill:#fff;}.cls-5,.cls-8{stroke:#1a1a1a;stroke-linecap:round;stroke-linejoin:round;}.cls-5{stroke-width:3px;}.cls-11,.cls-6{fill:#646464;}.cls-7{fill:#e3e3e3;}.cls-8{stroke-width:5px;}.cls-9{fill:#1a1a1a;}.cls-10{fill:#b3b3b3;}.cls-14{fill:#5a5a5a;}.cls-15{fill:#b8b8b8;}</style><clipPath id="clip-path"><path class="cls-1" d="M115.5,0A115.5,115.5,0,1,1,0,115.5,115.5,115.5,0,0,1,115.5,0Z"/></clipPath></defs><g class="cls-2"><path class="cls-3" d="M115.5,0A115.5,115.5,0,1,1,0,115.5,115.5,115.5,0,0,1,115.5,0Z"/><path class="cls-4" d="M115.5,51.75A63.75,63.75,0,1,1,51.75,115.5,63.75,63.75,0,0,1,115.5,51.75Z"/><path class="cls-4" d="M105,166.5h21v26a116.53,116.53,0,0,1,15.75,2.5l13.12,22.72a109.85,109.85,0,0,1-78.74,0L89.25,195A116.6,116.6,0,0,1,105,192.47v-26Z"/><path class="cls-5" d="M127.84,146.73c-2.24,8.93-6.92,15.08-12.34,15.08s-10.1-6.15-12.34-15.08Z"/><path class="cls-6" d="M115.5,231a115,115,0,0,0,64.23-19.5,114.79,114.79,0,0,0-38-16.5l-2.41-9A125.19,125.19,0,0,0,126,183.72v8.75q3.52.32,7,.84l-17.5,17.48L98,193.31q3.45-.52,7-.84v-8.75A125.55,125.55,0,0,0,91.66,186l-2.41,9a114.79,114.79,0,0,0-38,16.5A114.94,114.94,0,0,0,115.5,231Z"/><path class="cls-7" d="M133,193.33,96.79,229.49l-2.4-.42L130.5,193Z"/><path class="cls-8" d="M129.31,114.14l20-5.37m-47.66,5.37-20-5.37"/><path class="cls-9" d="M169.65,91c3.14,11.94,4.94,36.48-3.41,58.21l5.13,3.12c10-15.2,15-39.17,13.94-61.33Z"/><path class="cls-9" d="M45.08,91c-.88,4.93-.87,15-.15,21.75,2.13,20,16.67,42.5,16.67,42.5l5.74-4.43s-13.25-31.35-6.06-52.75c.52-1.55,1-2.92,1.35-4.18Z"/><path class="cls-9" d="M117,3.49c-8.21-.2-19.13,7.93-18.49,9.35,1.62,3.62,11.17,22.55,11.88,24h10.15c2.61-6.31,11.32-26.53,11.32-26.53s-4.14-4.14-12.41-6.44A10.34,10.34,0,0,0,117,3.49Z"/><path class="cls-9" d="M116,4.54a25.36,25.36,0,0,0-9.22,1.72A23,23,0,0,0,94,18.5h0a20.31,20.31,0,0,0-.58,13.85,21.1,21.1,0,0,0,3.16,6.1h38.89a21.92,21.92,0,0,0,1.88-3,20.4,20.4,0,0,0,.67-17,22.92,22.92,0,0,0-12.8-12.22A25.34,25.34,0,0,0,116,4.54Z"/><path class="cls-10" d="M92.51,28.12a20.45,20.45,0,0,0,.86,4.24A22,22,0,0,0,102,43.71a25.14,25.14,0,0,0,28.52-.43,22.21,22.21,0,0,0,6.77-7.84,20.37,20.37,0,0,0,2.12-7.52c-15-2.64-31.42-3.46-46.91.21Z"/><path class="cls-9" d="M34.43,90.63C49.14,94.71,57.11,97,79.68,98.06c2.53-18.19,4.67-28.68,10-38.36,3.21,13.41,3.84,25.22,2.91,42.26l11.18-.23c1.47-11.89,3.89-29.22,2.16-42C116.37,72.34,117.32,83.33,119,99.43c30.17-.76,59.8-4.51,77.84-10.13-10.76-38.61-41.47-55.66-80.38-56.1C78.31,32.75,42,55.6,34.43,90.63Z"/><path class="cls-3" d="M115.5,0A115.5,115.5,0,1,1,0,115.5,115.5,115.5,0,0,1,115.5,0Z"/><circle class="cls-9" cx="63.55" cy="133.15" r="39.24"/><circle class="cls-9" cx="63.55" cy="200.83" r="53.28"/><circle class="cls-9" cx="63.55" cy="83.86" r="29.26"/><circle class="cls-9" cx="167.45" cy="133.15" r="39.24"/><circle class="cls-9" cx="167.45" cy="200.83" r="53.28"/><circle class="cls-9" cx="167.45" cy="83.86" r="29.26"/><circle class="cls-11" cx="115.17" cy="248.31" r="72.28"/><circle class="cls-7" cx="115.17" cy="185.22" r="27.59"/><rect class="cls-12" x="96.81" y="139.13" width="36.71" height="62.96" rx="18.35"/><path class="cls-12" d="M163.8,69.64c-2-24.86-21.79-44.39-45.86-44.39h-5.88C88,25.25,68.23,44.76,66.2,69.64Q66,71.74,66,73.87v49.47c0,26.84,20.61,48.61,46,48.61h5.88c25.41,0,46-21.75,46-48.61V73.87Q164,71.74,163.8,69.64Z"/><rect class="cls-9" x="45.32" y="24.61" width="142.31" height="42.92" rx="21.46"/><path class="cls-12" d="M164,96.62v26.2a12.77,12.77,0,0,0,11.29-12.68v-.85A12.73,12.73,0,0,0,164,96.62Z"/><path class="cls-12" d="M66,96.62v26.2a12.77,12.77,0,0,1-11.29-12.68v-.85A12.74,12.74,0,0,1,66,96.62Z"/><rect class="cls-9" x="87.18" y="98.32" width="12.75" height="24.5" rx="6.01"/><rect class="cls-13" x="94.44" y="102.02" width="3.58" height="10.64" rx="1.79"/><rect class="cls-14" x="102.2" y="129.09" width="24.5" height="12.75" rx="6.01"/><rect class="cls-14" x="102.2" y="141.09" width="24.5" height="12.75" rx="6.01"/><rect class="cls-9" x="77.31" y="81.87" width="32.5" height="12.75" rx="6.01"/><rect class="cls-9" x="141.8" y="92.81" width="3.58" height="14.64" rx="1.79" transform="translate(43.46 243.71) rotate(-90)"/><rect class="cls-9" x="130.68" y="98.32" width="12.75" height="24.5" rx="6.01"/><rect class="cls-13" x="137.94" y="102.02" width="3.58" height="10.64" rx="1.79"/><rect class="cls-9" x="85.38" y="92.81" width="3.58" height="14.64" rx="1.79" transform="translate(-12.95 187.3) rotate(-90)"/><rect class="cls-9" x="121.81" y="81.87" width="30.5" height="12.75" rx="6.01"/><circle class="cls-15" cx="141.55" cy="135.8" r="6.8"/></g></svg>