<svg id="etapa_2_cc" data-name="etapa 2 cc" viewBox="0 0 231 231" version="1.1" xmlns="http://www.w3.org/2000/svg"><defs id="defs4"><style id="style2"></style></defs><path d="M115.5 0A115.5 115.5 0 1 1 0 115.5 115.5 115.5 0 0 1 115.5 0Z" id="path6" style="fill:#aaa;fill-rule:evenodd"/><path class="clothes" d="M142.73 181.39a27.45 27.45 0 0 0-5.93-13.59c-1 .47-2 .9-3 1.29v14.65a18.35 18.35 0 1 1-36.7 0v-14.53c-1.07-.39-2.11-.82-3.13-1.29a27.4 27.4 0 0 0-5.84 13.47 26.87 26.87 0 0 0-.27 3.83 27.59 27.59 0 0 0 55.18 0 28.42 28.42 0 0 0-.31-3.83Z" id="path10" style="fill:silver;fill-opacity:1"/><path class="clothes" d="M142.73 181.39a28.42 28.42 0 0 1 .27 3.83 27.59 27.59 0 0 1-55.18 0 26.87 26.87 0 0 1 .27-3.83 72.56 72.56 0 0 0-35.42 31 115.55 115.55 0 0 0 125.52.08 72.49 72.49 0 0 0-35.46-31.08Z" id="path8" style="fill:#fff;fill-opacity:1"/><path class="head" d="M164.25 96.62V73.87q0-2.13-.18-4.23c-2-24.86-21.78-44.39-45.86-44.39h-5.88c-24.07 0-43.83 19.51-45.86 44.39q-.18 2.1-.18 4.23v22.75A12.74 12.74 0 0 0 55 109.29v.85a12.77 12.77 0 0 0 11.29 12.68v.52c0 21.19 12.86 39.22 30.79 45.87v14.53a18.41 18.41 0 0 0 18.36 18.35 18.41 18.41 0 0 0 18.35-18.35v-14.65c17.75-6.74 30.46-24.67 30.46-45.75v-.52a12.77 12.77 0 0 0 11.29-12.68v-.85a12.73 12.73 0 0 0-11.29-12.67Z" id="path12" style="fill:#ddd;fill-opacity:1"/><path class="top" d="M185.67 70.52a25.58 25.58 0 0 0-.28-3.83c-1.14-17.24-7.46-28.11-17.51-38-11.45-11.32-35.23-17.36-52.61-17.36s-23.49 2.2-39.56 18.28c-10 10-15.78 13.14-19.15 15.61a26.26 26.26 0 0 0-6.69 46.52A26.25 26.25 0 0 0 67.62 135a51.13 51.13 0 0 1-1.33-11.63v-.52A12.77 12.77 0 0 1 55 110.14v-.85a12.74 12.74 0 0 1 11.29-12.67v-24.1h97.9v24.1a12.73 12.73 0 0 1 11.29 12.67v.85a12.77 12.77 0 0 1-11.29 12.68v.52a51.37 51.37 0 0 1-1.19 11.39A26.24 26.24 0 0 0 177.08 90a26.16 26.16 0 0 0 8.51-17.43v-.08c.05-.68.08-1.32.08-1.97Z" id="path14" style="fill:#4d4d4d;fill-opacity:1"/><rect class="mouth" x="140.29" y="129.01" width="16.02" height="8.34" rx="3.93" id="rect16" style="fill:#333;fill-opacity:1"/><path class="mouth" d="M98.37 134.43c0 6.4 2.26 13.84 14.17 13.84h5c11.91 0 14.14-7.44 14.17-13.84Z" id="path36" style="fill:#fff;fill-opacity:1"/><path class="eyes" d="M172.364 97.872h-2.93a18.22 18.22 0 0 0-17.67-13.8h-15.62a18.18 18.18 0 0 0-12.9 5.36 18.5 18.5 0 0 0-3.61 5.17h-7.78a18.68 18.68 0 0 0-3.6-5.17 18.2 18.2 0 0 0-12.91-5.36h-15.69a18.2 18.2 0 0 0-17.67 13.8h-2.68a3.39 3.39 0 0 0-3.39 3.39v1.17a3.4 3.4 0 0 0 3.39 3.4h2.15a18.25 18.25 0 0 0 18.2 17.47h15.65a18.27 18.27 0 0 0 17.84-14.26h5.23a18.26 18.26 0 0 0 17.77 14.26h15.66a18.26 18.26 0 0 0 18.2-17.47h2.4a3.4 3.4 0 0 0 3.39-3.4v-1.17a3.39 3.39 0 0 0-3.43-3.39zm-104.89 4.43a12.2 12.2 0 0 1 12.18-12.18h2.17l-12.7 21a12.16 12.16 0 0 1-1.65-6.1zm14.67 13.11-1.11 1.83h-1.4a12.13 12.13 0 0 1-2.19-.21l1-1.68 15.27-25.23h1.59a12.24 12.24 0 0 1 2 .19zm15.32 1.62 1.23-2 6.55-10.85 2.1-3.48a12.35 12.35 0 0 1 .12 1.62v2.76a12.15 12.15 0 0 1-1.67 6.12 12.17 12.17 0 0 1-8.31 5.83zm38.68-26.91h2.18l-12.7 21a12.07 12.07 0 0 1-1.66-6.1v-2.76a12.2 12.2 0 0 1 12.18-12.14zm15.66 0a12 12 0 0 1 2 .19l-15.16 25.1h-2.5c-.39 0-.78 0-1.16-.06l15.16-25.23zm2.18 26.91 1.22-2 8.66-14.33a12.35 12.35 0 0 1 .12 1.62v2.76a12.22 12.22 0 0 1-10 12z" id="path32-3" style="fill:#1a1a1a;fill-opacity:1"/><path class="eyes" d="M95.304 84.072a18.2 18.2 0 0 1 12.91 5.36 15.2 15.2 0 0 0-12.91-7.19h-15.65a15.18 15.18 0 0 0-12.91 7.19 18.18 18.18 0 0 1 12.91-5.36z" id="path16" style="fill:#fff;fill-opacity:1"/><path class="eyes" d="M79.654 90.122a12.2 12.2 0 0 0-12.18 12.18v2.76a12.16 12.16 0 0 0 1.65 6.1l12.7-21z" id="path18-6" style="fill:#fff;fill-opacity:1"/><path class="eyes" d="m93.714 90.122-15.23 25.23-1 1.68a12.13 12.13 0 0 0 2.19.21h1.4l1.07-1.83 15.16-25.1a12.24 12.24 0 0 0-2-.19z" id="path20-7" style="fill:#fff;fill-opacity:1"/><path class="eyes" d="m105.264 104.162-6.55 10.85-1.23 2a12.17 12.17 0 0 0 8.33-5.85 12.15 12.15 0 0 0 1.67-6.12v-2.76a12.35 12.35 0 0 0-.12-1.62z" id="path22-5" style="fill:#fff;fill-opacity:1"/><path class="eyes" d="M151.764 84.072a18.18 18.18 0 0 1 12.9 5.36 15.17 15.17 0 0 0-12.9-7.19h-15.62a15.17 15.17 0 0 0-12.9 7.19 18.18 18.18 0 0 1 12.9-5.36z" id="path24-3" style="fill:#fff;fill-opacity:1"/><path class="eyes" d="m155.144 115.012-1.22 2a12.22 12.22 0 0 0 10-12v-2.76a12.35 12.35 0 0 0-.12-1.62z" id="path26-5" style="fill:#fff;fill-opacity:1"/><path class="eyes" d="M136.144 90.122a12.2 12.2 0 0 0-12.18 12.18v2.76a12.07 12.07 0 0 0 1.66 6.1l12.7-21z" id="path28-6" style="fill:#fff;fill-opacity:1"/><path class="eyes" d="m150.144 90.122-15.2 25.23c.38 0 .77.06 1.16.06h2.51l15.16-25.1a12 12 0 0 0-2-.19z" id="path30-2" style="fill:#fff;fill-opacity:1"/></svg>