<svg id="etapa_2_cc" data-name="etapa 2 cc" xmlns="http://www.w3.org/2000/svg" viewBox="0 0 231 231"><defs><style>.cls-1{fill:#aaa;fill-rule:evenodd;}.cls-2{fill:#fff;}.cls-3{fill:silver;}.cls-4{fill:#ddd;}.cls-5{fill:#4d4d4d;}.cls-6{fill:#333;}.cls-7{fill:#b3b3b3;}.cls-8{fill:#1a1a1a;}</style></defs><path class="cls-1" d="M115.5,0A115.5,115.5,0,1,1,0,115.5,115.5,115.5,0,0,1,115.5,0Z"/><path class="cls-2" d="M142.73,181.39a28.42,28.42,0,0,1,.27,3.83,27.59,27.59,0,0,1-55.18,0,26.87,26.87,0,0,1,.27-3.83,72.56,72.56,0,0,0-35.42,31,115.55,115.55,0,0,0,125.52.08A72.49,72.49,0,0,0,142.73,181.39Z"/><path class="cls-3" d="M142.73,181.39a27.45,27.45,0,0,0-5.93-13.59c-1,.47-2,.9-3,1.29v14.65a18.35,18.35,0,1,1-36.7,0V169.21c-1.07-.39-2.11-.82-3.13-1.29a27.4,27.4,0,0,0-5.84,13.47,26.87,26.87,0,0,0-.27,3.83,27.59,27.59,0,0,0,55.18,0A28.42,28.42,0,0,0,142.73,181.39Z"/><path class="cls-4" d="M164.25,96.62V73.87q0-2.13-.18-4.23c-2-24.86-21.78-44.39-45.86-44.39h-5.88c-24.07,0-43.83,19.51-45.86,44.39q-.18,2.1-.18,4.23V96.62A12.74,12.74,0,0,0,55,109.29v.85a12.77,12.77,0,0,0,11.29,12.68v.52c0,21.19,12.86,39.22,30.79,45.87v14.53a18.41,18.41,0,0,0,18.36,18.35h0a18.41,18.41,0,0,0,18.35-18.35V169.09c17.75-6.74,30.46-24.67,30.46-45.75v-.52a12.77,12.77,0,0,0,11.29-12.68v-.85A12.73,12.73,0,0,0,164.25,96.62Z"/><path class="cls-5" d="M185.67,70.52a25.58,25.58,0,0,0-.28-3.83c-1.14-17.24-7.46-28.11-17.51-38-11.45-11.32-35.23-17.36-52.61-17.36S91.78,13.53,75.71,29.61c-10,10-15.78,13.14-19.15,15.61a26.26,26.26,0,0,0-6.69,46.52A26.25,26.25,0,0,0,67.62,135a51.13,51.13,0,0,1-1.33-11.63v-.52A12.77,12.77,0,0,1,55,110.14v-.85A12.74,12.74,0,0,1,66.29,96.62V73.87c0-.45,0-.9,0-1.35h97.9c0,.45,0,.9,0,1.35V96.62a12.73,12.73,0,0,1,11.29,12.67v.85a12.77,12.77,0,0,1-11.29,12.68v.52A51.37,51.37,0,0,1,163,134.73,26.24,26.24,0,0,0,177.08,90a26.16,26.16,0,0,0,8.51-17.43h0v-.08C185.64,71.81,185.67,71.17,185.67,70.52Z"/><rect class="cls-6" x="140.29" y="129.01" width="16.02" height="8.34" rx="3.93"/><path class="cls-7" d="M95.16,84.53a18.2,18.2,0,0,1,12.91,5.36A15.2,15.2,0,0,0,95.16,82.7H79.51A15.18,15.18,0,0,0,66.6,89.89a18.18,18.18,0,0,1,12.91-5.36Z"/><path class="cls-7" d="M79.51,90.58a12.2,12.2,0,0,0-12.18,12.18v2.76a12.16,12.16,0,0,0,1.65,6.1l12.7-21Z"/><path class="cls-7" d="M93.57,90.58,78.34,115.81l-1,1.68a12.13,12.13,0,0,0,2.19.21h1.4L82,115.87l15.16-25.1a12.24,12.24,0,0,0-2-.19Z"/><path class="cls-7" d="M105.12,104.62l-6.55,10.85-1.23,2a12.17,12.17,0,0,0,8.33-5.85,12.15,12.15,0,0,0,1.67-6.12v-2.76a12.35,12.35,0,0,0-.12-1.62Z"/><path class="cls-7" d="M151.62,84.53a18.18,18.18,0,0,1,12.9,5.36,15.17,15.17,0,0,0-12.9-7.19H136a15.17,15.17,0,0,0-12.9,7.19A18.18,18.18,0,0,1,136,84.53Z"/><path class="cls-7" d="M155,115.47l-1.22,2a12.22,12.22,0,0,0,10-12v-2.76a12.35,12.35,0,0,0-.12-1.62Z"/><path class="cls-7" d="M136,90.58a12.2,12.2,0,0,0-12.18,12.18v2.76a12.07,12.07,0,0,0,1.66,6.1l12.7-21Z"/><path class="cls-7" d="M150,90.58,134.8,115.81c.38,0,.77.06,1.16.06h2.51l15.16-25.1a12,12,0,0,0-2-.19Z"/><path class="cls-8" d="M172.22,98.33h-2.93a18.22,18.22,0,0,0-17.67-13.8H136a18.18,18.18,0,0,0-12.9,5.36,18.5,18.5,0,0,0-3.61,5.17h-7.78a18.68,18.68,0,0,0-3.6-5.17,18.2,18.2,0,0,0-12.91-5.36H79.51a18.2,18.2,0,0,0-17.67,13.8H59.16a3.39,3.39,0,0,0-3.39,3.39v1.17a3.4,3.4,0,0,0,3.39,3.4h2.15a18.25,18.25,0,0,0,18.2,17.47H95.16A18.27,18.27,0,0,0,113,109.5h5.23A18.26,18.26,0,0,0,136,123.76h15.66a18.26,18.26,0,0,0,18.2-17.47h2.4a3.4,3.4,0,0,0,3.39-3.4v-1.17A3.39,3.39,0,0,0,172.22,98.33ZM67.33,102.76A12.2,12.2,0,0,1,79.51,90.58h2.17l-12.7,21a12.16,12.16,0,0,1-1.65-6.1ZM82,115.87l-1.11,1.83h-1.4a12.13,12.13,0,0,1-2.19-.21l1-1.68L93.57,90.58h1.59a12.24,12.24,0,0,1,2,.19Zm15.32,1.62,1.23-2,6.55-10.85,2.1-3.48a12.35,12.35,0,0,1,.12,1.62v2.76a12.15,12.15,0,0,1-1.67,6.12A12.17,12.17,0,0,1,97.34,117.49ZM136,90.58h2.18l-12.7,21a12.07,12.07,0,0,1-1.66-6.1v-2.76A12.2,12.2,0,0,1,136,90.58Zm15.66,0a12,12,0,0,1,2,.19l-15.16,25.1H136c-.39,0-.78,0-1.16-.06L150,90.58Zm2.18,26.91,1.22-2,8.66-14.33a12.35,12.35,0,0,1,.12,1.62v2.76a12.22,12.22,0,0,1-10,12Z"/><path class="cls-2" d="M98.37,134.43c0,6.4,2.26,13.84,14.17,13.84h5c11.91,0,14.14-7.44,14.17-13.84Z"/></svg>