<svg data-name="etapa 2 cc" viewBox="0 0 1000 1000" xmlns="http://www.w3.org/2000/svg"><path d="M500 0A500 500 0 1 1 0 500 500 500 0 0 1 500 0Z" style="fill:#aaa;fill-rule:evenodd;stroke-width:4.32901"/><path class="clothes" d="M617.879 785.238a118.831 118.831 0 0 0-25.671-58.831 209.432 209.432 0 0 1-12.987 5.584v63.42a79.437 79.437 0 1 1-158.875 0v-62.9a177.872 177.872 0 0 1-13.55-5.585 118.615 118.615 0 0 0-25.28 58.312 116.32 116.32 0 0 0-1.17 16.58 119.437 119.437 0 0 0 238.875 0 123.03 123.03 0 0 0-1.342-16.58z" style="fill:silver;fill-opacity:1;stroke-width:4.32901"/><path class="clothes" d="M617.879 785.238a123.03 123.03 0 0 1 1.169 16.58 119.437 119.437 0 0 1-238.875 0 116.32 116.32 0 0 1 1.169-16.58 314.113 314.113 0 0 0-153.333 134.2 500.216 500.216 0 0 0 543.376.346A313.81 313.81 0 0 0 617.88 785.238Z" style="fill:#fff;fill-opacity:1;stroke-width:4.32901"/><path class="head" d="M711.039 418.268v-98.484q0-9.221-.78-18.312c-8.657-107.62-94.285-192.165-198.527-192.165h-25.455c-104.2 0-189.74 84.46-198.528 192.165q-.78 9.09-.78 18.312v98.484a55.152 55.152 0 0 0-48.874 54.849v3.68a55.281 55.281 0 0 0 48.875 54.891v2.251c0 91.732 55.67 169.784 133.29 198.572v62.9a79.697 79.697 0 0 0 79.48 79.437 79.697 79.697 0 0 0 79.437-79.437v-63.42c76.84-29.177 131.862-106.796 131.862-198.052v-2.25a55.281 55.281 0 0 0 48.874-54.892v-3.68a55.108 55.108 0 0 0-48.874-54.849Z" style="fill:#ddd;fill-opacity:1;stroke-width:4.32901"/><path class="top" d="M803.766 305.281a110.736 110.736 0 0 0-1.212-16.58c-4.935-74.632-32.294-121.688-75.8-164.502-49.568-49.004-152.512-75.151-227.75-75.151S397.316 58.57 327.75 128.182c-43.29 43.29-68.312 56.883-82.9 67.576a113.68 113.68 0 0 0-28.962 201.385 113.636 113.636 0 0 0 76.84 187.273 221.342 221.342 0 0 1-5.757-50.347v-2.25a55.281 55.281 0 0 1-48.875-55.022v-3.68a55.152 55.152 0 0 1 48.875-54.849V313.94h423.81v104.33a55.108 55.108 0 0 1 48.874 54.848v3.68a55.281 55.281 0 0 1-48.875 54.891v2.251a222.381 222.381 0 0 1-5.151 49.308A113.593 113.593 0 0 0 766.58 389.61a113.247 113.247 0 0 0 36.84-75.454v-.346c.216-2.944.346-5.715.346-8.529z" style="fill:#4d4d4d;fill-opacity:1;stroke-width:4.32901"/><rect class="mouth" x="607.316" y="558.485" width="69.351" height="36.104" rx="17.013" style="fill:#333;fill-opacity:1;stroke-width:4.32901"/><path class="mouth" d="M425.844 581.948c0 27.706 9.784 59.913 61.342 59.913h21.645c51.559 0 61.212-32.207 61.342-59.913z" style="fill:#fff;fill-opacity:1;stroke-width:4.32901"/><path class="eyes" d="M746.164 423.688h-12.683a78.874 78.874 0 0 0-76.494-59.74h-67.619a78.701 78.701 0 0 0-55.844 23.204 80.087 80.087 0 0 0-15.628 22.38h-33.68a80.866 80.866 0 0 0-15.584-22.38 78.788 78.788 0 0 0-55.887-23.204h-67.922a78.788 78.788 0 0 0-76.494 59.74h-11.602a14.675 14.675 0 0 0-14.675 14.676v5.065a14.719 14.719 0 0 0 14.675 14.718h9.308a79.004 79.004 0 0 0 78.788 75.628h67.748a79.09 79.09 0 0 0 77.23-61.732h22.64a79.048 79.048 0 0 0 76.927 61.732h67.792a79.048 79.048 0 0 0 78.788-75.628h10.39a14.719 14.719 0 0 0 14.675-14.718v-5.065a14.675 14.675 0 0 0-14.849-14.676Zm-454.069 19.178a52.814 52.814 0 0 1 52.728-52.727h9.393l-54.978 90.909a52.64 52.64 0 0 1-7.143-26.407zm63.507 56.753-4.805 7.922h-6.061a52.51 52.51 0 0 1-9.48-.909l4.328-7.273 66.104-109.22h6.883a52.987 52.987 0 0 1 8.658.822zm66.32 7.013 5.325-8.658 28.355-46.97 9.09-15.065a53.463 53.463 0 0 1 .52 7.013V454.9a52.597 52.597 0 0 1-7.23 26.494 52.684 52.684 0 0 1-35.973 25.238zm167.446-116.493h9.437l-54.978 90.909a52.251 52.251 0 0 1-7.186-26.407v-11.948a52.814 52.814 0 0 1 52.727-52.554zm67.792 0a51.948 51.948 0 0 1 8.658.822L600.19 499.619h-10.822c-1.688 0-3.377 0-5.022-.26l65.628-109.22zm9.437 116.493 5.282-8.658 37.489-62.035a53.463 53.463 0 0 1 .52 7.013V454.9a52.9 52.9 0 0 1-43.29 51.948z" style="fill:#1a1a1a;fill-opacity:1;stroke-width:4.32901"/><path class="eyes" d="M412.571 363.948a78.788 78.788 0 0 1 55.888 23.204 65.8 65.8 0 0 0-55.888-31.126h-67.748a65.714 65.714 0 0 0-55.888 31.126 78.701 78.701 0 0 1 55.888-23.204zM344.823 390.139a52.814 52.814 0 0 0-52.728 52.727v11.948a52.64 52.64 0 0 0 7.143 26.407l54.978-90.91zM405.688 390.139l-65.93 109.22-4.33 7.273a52.51 52.51 0 0 0 9.481.91h6.06l4.633-7.923 65.627-108.658a52.987 52.987 0 0 0-8.658-.822zM455.688 450.918l-28.355 46.97-5.324 8.657a52.684 52.684 0 0 0 36.06-25.324 52.597 52.597 0 0 0 7.23-26.494V442.78a53.463 53.463 0 0 0-.52-7.013zM656.987 363.948a78.701 78.701 0 0 1 55.844 23.204 65.671 65.671 0 0 0-55.844-31.126h-67.619a65.671 65.671 0 0 0-55.844 31.126 78.701 78.701 0 0 1 55.844-23.204zM671.62 497.887l-5.282 8.658a52.9 52.9 0 0 0 43.29-51.948V442.65a53.463 53.463 0 0 0-.52-7.013zM589.368 390.139a52.814 52.814 0 0 0-52.727 52.727v11.948a52.251 52.251 0 0 0 7.186 26.407l54.978-90.91zM649.974 390.139l-65.8 109.22c1.644 0 3.332.26 5.02.26h10.867l65.627-108.658a51.948 51.948 0 0 0-8.658-.822z" style="fill:#fff;fill-opacity:1;stroke-width:4.32901"/></svg>