<svg id="etapa_2_cc" data-name="etapa 2 cc" xmlns="http://www.w3.org/2000/svg" viewBox="0 0 231 231"><defs><style>.cls-1{fill:#b2b2b2;fill-rule:evenodd;}.cls-2{fill:#c8c8c8;}.cls-3{fill:#353535;}.cls-4{fill:#fff;}.cls-5{fill:none;}.cls-6{fill:#5a5a5a;}.cls-7{fill:#4d4d4d;}.cls-8{fill:#b3b3b3;}.cls-9{fill:#1a1a1a;}.cls-10{fill:#7c7c7c;}</style></defs><path class="cls-1" d="M115.5,0A115.5,115.5,0,1,1,0,115.5,115.5,115.5,0,0,1,115.5,0Z"/><path class="cls-2" d="M164.22,96.62V73.87q0-2.13-.18-4.23c-2-24.86-21.78-44.39-45.86-44.39H112.3c-24.07,0-43.83,19.51-45.86,44.39q-.18,2.1-.18,4.23V96.62A12.74,12.74,0,0,0,55,109.29v.85a12.77,12.77,0,0,0,11.29,12.68v.52c0,19.94,11.39,37.09,27.67,44.58,1,.47,2.07.9,3.13,1.29v14.53a18.35,18.35,0,1,0,36.7,0V169.09c1-.39,2-.82,3-1.28,16.16-7.55,27.44-24.61,27.44-44.47v-.52a12.77,12.77,0,0,0,11.29-12.68v-.85A12.73,12.73,0,0,0,164.22,96.62Z"/><path class="cls-3" d="M142.73,181.39a28.42,28.42,0,0,1,.27,3.83,27.59,27.59,0,0,1-55.18,0,26.87,26.87,0,0,1,.27-3.83,72.56,72.56,0,0,0-35.42,31,115.55,115.55,0,0,0,125.52.08A72.49,72.49,0,0,0,142.73,181.39Z"/><path class="cls-4" d="M133.76,178.39v5.35a18.35,18.35,0,1,1-36.7,0V169.21c-1.06-.39-2.1-.82-3.13-1.29a27.4,27.4,0,0,0-5.84,13.47,26.87,26.87,0,0,0-.27,3.83,27.59,27.59,0,0,0,55.18,0,28.42,28.42,0,0,0-.27-3.83,27.36,27.36,0,0,0-5.95-13.58c-1,.46-2,.89-3,1.28Z"/><path class="cls-5" d="M118.18,25.25H112.3c-24.07,0-43.83,19.51-45.86,44.39q-.18,2.1-.18,4.23V96.62A12.74,12.74,0,0,0,55,109.29v.85a12.77,12.77,0,0,0,11.29,12.68v.52c0,19.94,11.39,37.09,27.67,44.58,1,.47,2.07.9,3.13,1.29v14.53a18.35,18.35,0,1,0,36.7,0V169.09c1-.39,2-.82,3-1.28,16.16-7.55,27.44-24.61,27.44-44.47V73.87q0-2.13-.18-4.23C162,44.78,142.26,25.25,118.18,25.25Z"/><path class="cls-5" d="M164.22,96.62v26.2a12.77,12.77,0,0,0,11.29-12.68v-.85A12.73,12.73,0,0,0,164.22,96.62Z"/><path class="cls-6" d="M126.7,135.83v-.73a6,6,0,0,0-6-6H108.21a6,6,0,0,0-6,6v.73a6,6,0,0,0,3.93,5.64,6,6,0,0,0-3.93,5.63v.73a6,6,0,0,0,6,6h12.48a6,6,0,0,0,6-6v-.73a6,6,0,0,0-3.93-5.63A6,6,0,0,0,126.7,135.83Z"/><path class="cls-7" d="M159.71,29.61A63.13,63.13,0,0,0,115.6,11.3h-.1A63.34,63.34,0,0,0,52.63,72.52h0v93.36a11.88,11.88,0,0,0,11.84,11.84H89.14a27.48,27.48,0,0,1,5.11-9.85C78,160.35,66.69,143.25,66.69,123.34v-.52A12.77,12.77,0,0,1,55.4,110.14v-.85A12.73,12.73,0,0,1,66.69,96.62V73.87q0-.68,0-1.35h97.66q0,.67,0,1.35V96.62a12.73,12.73,0,0,1,11.29,12.67v.85a12.77,12.77,0,0,1-11.29,12.68v.52c0,19.91-11.34,37-27.56,44.53a27.48,27.48,0,0,1,5.11,9.85h24.62a11.88,11.88,0,0,0,11.84-11.84V72.52h.05A63.17,63.17,0,0,0,159.71,29.61Z"/><path class="cls-8" d="M95.16,84.53a18.2,18.2,0,0,1,12.91,5.36A15.2,15.2,0,0,0,95.16,82.7H79.51A15.18,15.18,0,0,0,66.6,89.89a18.18,18.18,0,0,1,12.91-5.36Z"/><path class="cls-8" d="M79.51,90.58a12.2,12.2,0,0,0-12.18,12.18v2.76a12.16,12.16,0,0,0,1.65,6.1l12.7-21Z"/><path class="cls-8" d="M93.57,90.58,78.34,115.81l-1,1.68a12.13,12.13,0,0,0,2.19.21h1.4L82,115.87l15.16-25.1a12.24,12.24,0,0,0-2-.19Z"/><path class="cls-8" d="M105.12,104.62l-6.55,10.85-1.23,2a12.17,12.17,0,0,0,8.33-5.85,12.15,12.15,0,0,0,1.67-6.12v-2.76a12.35,12.35,0,0,0-.12-1.62Z"/><path class="cls-8" d="M151.62,84.53a18.18,18.18,0,0,1,12.9,5.36,15.17,15.17,0,0,0-12.9-7.19H136a15.17,15.17,0,0,0-12.9,7.19A18.18,18.18,0,0,1,136,84.53Z"/><path class="cls-8" d="M155,115.47l-1.22,2a12.22,12.22,0,0,0,10-12v-2.76a12.35,12.35,0,0,0-.12-1.62Z"/><path class="cls-8" d="M136,90.58a12.2,12.2,0,0,0-12.18,12.18v2.76a12.07,12.07,0,0,0,1.66,6.1l12.7-21Z"/><path class="cls-8" d="M150,90.58,134.8,115.81c.38,0,.77.06,1.16.06h2.51l15.16-25.1a12,12,0,0,0-2-.19Z"/><path class="cls-9" d="M172.22,98.33h-2.93a18.22,18.22,0,0,0-17.67-13.8H136a18.18,18.18,0,0,0-12.9,5.36,18.5,18.5,0,0,0-3.61,5.17h-7.78a18.68,18.68,0,0,0-3.6-5.17,18.2,18.2,0,0,0-12.91-5.36H79.51a18.2,18.2,0,0,0-17.67,13.8H59.16a3.39,3.39,0,0,0-3.39,3.39v1.17a3.4,3.4,0,0,0,3.39,3.4h2.15a18.25,18.25,0,0,0,18.2,17.47H95.16A18.27,18.27,0,0,0,113,109.5h5.23A18.26,18.26,0,0,0,136,123.76h15.66a18.26,18.26,0,0,0,18.2-17.47h2.4a3.4,3.4,0,0,0,3.39-3.4v-1.17A3.39,3.39,0,0,0,172.22,98.33ZM67.33,102.76A12.2,12.2,0,0,1,79.51,90.58h2.17l-12.7,21a12.16,12.16,0,0,1-1.65-6.1ZM82,115.87l-1.11,1.83h-1.4a12.13,12.13,0,0,1-2.19-.21l1-1.68L93.57,90.58h1.59a12.24,12.24,0,0,1,2,.19Zm15.32,1.62,1.23-2,6.55-10.85,2.1-3.48a12.35,12.35,0,0,1,.12,1.62v2.76a12.15,12.15,0,0,1-1.67,6.12A12.17,12.17,0,0,1,97.34,117.49ZM136,90.58h2.18l-12.7,21a12.07,12.07,0,0,1-1.66-6.1v-2.76A12.2,12.2,0,0,1,136,90.58Zm15.66,0a12,12,0,0,1,2,.19l-15.16,25.1H136c-.39,0-.78,0-1.16-.06L150,90.58Zm2.18,26.91,1.22-2,8.66-14.33a12.35,12.35,0,0,1,.12,1.62v2.76a12.22,12.22,0,0,1-10,12Z"/><polygon class="cls-10" points="160.28 20.19 163.72 31.07 172.13 23.36 169.67 34.51 180.82 32.05 173.11 40.47 183.99 43.91 173.11 47.34 180.82 55.76 169.67 53.3 172.13 64.44 163.72 56.74 160.28 67.62 156.84 56.74 148.42 64.44 150.88 53.3 139.74 55.76 147.44 47.34 136.56 43.91 147.44 40.47 139.74 32.05 150.88 34.51 148.42 23.36 156.84 31.07 160.28 20.19"/></svg>