<svg data-name="etapa 2 cc" viewBox="0 0 1000 1000" xmlns="http://www.w3.org/2000/svg"><path d="M500 0A500 500 0 1 1 0 500 500 500 0 0 1 500 0Z" style="fill:#333;fill-rule:evenodd;stroke-width:4.32901"/><path class="head" d="M710.91 418.268v-98.484c0-6.148-.26-12.252-.78-18.312-8.658-107.62-94.286-192.165-198.528-192.165h-25.455c-104.199 0-189.74 84.46-198.528 192.165-.52 6.06-.78 12.164-.78 18.312v98.484a55.152 55.152 0 0 0-48.744 54.849v3.68a55.281 55.281 0 0 0 48.875 54.891v2.251c0 86.32 49.307 160.563 119.783 192.987a167.555 167.555 0 0 0 13.403 5.585v62.9c0 43.87 35.714 79.437 79.584 79.437 43.87 0 79.437-35.567 79.437-79.437v-63.42a238.473 238.473 0 0 0 12.987-5.54c69.957-32.685 118.788-106.538 118.788-192.512v-2.25a55.281 55.281 0 0 0 48.875-54.892v-3.68a55.108 55.108 0 0 0-48.918-54.849Z" style="fill:#999;fill-opacity:1;stroke-width:4.32901"/><path class="top" d="M809.524 199.437a93.16 93.16 0 0 0-92.9-92.9H281.947a93.117 93.117 0 0 0-92.9 92.9 92.64 92.64 0 0 0 31.731 69.654 92.64 92.64 0 0 0-31.731 69.654 92.251 92.251 0 0 0 24.199 62.207 113.593 113.593 0 0 0 79.35 183.464h.953a221.039 221.039 0 0 1-5.758-50.347v-2.25a55.281 55.281 0 0 1-48.874-54.893v-3.68a55.281 55.281 0 0 1 48.874-54.978v-98.484q0-9.221.78-18.312c.26-3.074.562-6.104.952-9.178h419.61c.39 3.074.736 6.104.996 9.178.476 6.06.736 12.164.736 18.312v98.484h.65c1.255 0 2.51.347 3.765.606l1.862.433 2.38.606 2.122.606 1.688.607a44.329 44.329 0 0 1 4.676 1.948l.822.39c.996.475 1.948.995 2.9 1.514h.304a63.94 63.94 0 0 1 5.368 3.55q1.298.996 2.597 2.078l1.299 1.082c1.255 1.083 2.424 2.251 3.593 3.464a15.022 15.022 0 0 0 1.082 1.255c.736.866 1.515 1.732 2.208 2.64.692.91.866 1.17 1.255 1.776l1.732 2.467 1.125 1.905 1.472 2.684.953 1.948c.476.996.865 2.078 1.298 3.117l.65 1.688a67.047 67.047 0 0 1 1.515 5.022v.303a57.186 57.186 0 0 1 1.472 12.987v3.68a55.281 55.281 0 0 1-48.875 54.891v2.251a221.039 221.039 0 0 1-5.67 50.65 113.593 113.593 0 0 0 80.302-183.334 92.251 92.251 0 0 0 24.113-62.337 92.684 92.684 0 0 0-31.775-69.654 92.684 92.684 0 0 0 31.775-69.654z" style="fill:#ccc;fill-opacity:1;stroke-width:4.32901"/><path class="clothes" d="M579.048 772.251v23.16a79.437 79.437 0 1 1-158.875 0v-62.9a193.735 193.735 0 0 1-13.55-5.585 118.615 118.615 0 0 0-25.281 58.312 116.32 116.32 0 0 0-1.169 16.58 119.437 119.437 0 0 0 238.875 0 123.03 123.03 0 0 0-1.17-16.58 118.442 118.442 0 0 0-25.757-58.788 238.473 238.473 0 0 1-12.987 5.541z" style="fill:#fff;fill-opacity:1;stroke-width:4.32901"/><path class="clothes" d="M617.879 785.238a123.03 123.03 0 0 1 1.169 16.58 119.437 119.437 0 0 1-238.875 0 116.32 116.32 0 0 1 1.169-16.58 314.113 314.113 0 0 0-153.333 134.2 500.216 500.216 0 0 0 543.376.346A313.81 313.81 0 0 0 617.88 785.238Z" style="fill:#999;fill-opacity:1;stroke-width:4.32901"/><path class="mouth" d="M425.844 581.948c0 27.706 9.784 59.913 61.342 59.913h21.645c51.559 0 61.212-32.207 61.342-59.913z" style="fill:#fff;fill-opacity:1;stroke-width:4.32901"/><path class="mouth" d="m576.537 570.476-49.48-21.645a25.974 25.974 0 0 0-29.611 6.277 25.974 25.974 0 0 0-29.61-6.277l-49.524 21.645a25.974 25.974 0 0 0-13.377 34.286l1.299 2.9a25.974 25.974 0 0 0 34.242 13.42l49.48-21.645a24.892 24.892 0 0 0 7.49-4.978 24.892 24.892 0 0 0 7.49 4.978l49.48 21.645a25.974 25.974 0 0 0 34.242-13.42l1.299-2.9a25.974 25.974 0 0 0-13.42-34.286Z" style="fill:#333;fill-opacity:1;stroke-width:4.32901"/><circle class="mouth" cx="500" cy="691.125" style="fill:#333;fill-opacity:1;stroke-width:4.32901" r="29.437"/><rect class="eyes" x="335.714" y="354.416" width="140.693" height="55.195" rx="26.017" style="fill:#333;fill-opacity:1;stroke-width:4.32901"/><rect class="eyes" x="528.355" y="354.416" width="132.035" height="55.195" rx="26.017" style="fill:#333;fill-opacity:1;stroke-width:4.32901"/><rect class="eyes" x="378.442" y="425.628" width="55.195" height="106.061" rx="26.017" style="fill:#1a1a1a;fill-opacity:1;stroke-width:4.32901"/><rect class="eyes" x="409.87" y="441.645" width="15.498" height="46.061" rx="7.749" style="fill:#fff;fill-opacity:1;stroke-width:4.32901"/><rect class="eyes" x="566.753" y="425.628" width="55.195" height="106.061" rx="26.017" style="fill:#1a1a1a;fill-opacity:1;stroke-width:4.32901"/><rect class="eyes" x="598.182" y="441.645" width="15.498" height="46.061" rx="7.749" style="fill:#fff;fill-opacity:1;stroke-width:4.32901"/></svg>