<svg id="etapa_2_cc" data-name="etapa 2 cc" xmlns="http://www.w3.org/2000/svg" viewBox="0 0 231 231"><defs><style>.cls-1,.cls-4{fill:#333;}.cls-1{fill-rule:evenodd;}.cls-2{fill:#999;}.cls-3{fill:#fff;}.cls-5{fill:#1a1a1a;}.cls-6{fill:#ccc;}</style></defs><path class="cls-1" d="M115.5,0A115.5,115.5,0,1,1,0,115.5,115.5,115.5,0,0,1,115.5,0Z"/><path class="cls-2" d="M164.22,96.62V73.87q0-2.13-.18-4.23c-2-24.86-21.78-44.39-45.86-44.39H112.3c-24.07,0-43.83,19.51-45.86,44.39q-.18,2.1-.18,4.23V96.62A12.74,12.74,0,0,0,55,109.29v.85a12.77,12.77,0,0,0,11.29,12.68v.52c0,19.94,11.39,37.09,27.67,44.58,1,.47,2.07.9,3.13,1.29v14.53a18.35,18.35,0,1,0,36.7,0V169.09c1-.39,2-.82,3-1.28,16.16-7.55,27.44-24.61,27.44-44.47v-.52a12.77,12.77,0,0,0,11.29-12.68v-.85A12.73,12.73,0,0,0,164.22,96.62Z"/><path class="cls-2" d="M142.73,181.39a28.42,28.42,0,0,1,.27,3.83,27.59,27.59,0,0,1-55.18,0,26.87,26.87,0,0,1,.27-3.83,72.56,72.56,0,0,0-35.42,31,115.55,115.55,0,0,0,125.52.08A72.49,72.49,0,0,0,142.73,181.39Z"/><path class="cls-3" d="M133.76,178.39v5.35a18.35,18.35,0,1,1-36.7,0V169.21c-1.06-.39-2.1-.82-3.13-1.29a27.4,27.4,0,0,0-5.84,13.47,26.87,26.87,0,0,0-.27,3.83,27.59,27.59,0,0,0,55.18,0,28.42,28.42,0,0,0-.27-3.83,27.36,27.36,0,0,0-5.95-13.58c-1,.46-2,.89-3,1.28Z"/><path class="cls-3" d="M98.37,134.43c0,6.4,2.26,13.84,14.17,13.84h5c11.91,0,14.14-7.44,14.17-13.84Z"/><path class="cls-4" d="M133.18,131.78l-11.43-5a6,6,0,0,0-6.84,1.45,6,6,0,0,0-6.84-1.45l-11.44,5a6,6,0,0,0-3.09,7.92l.3.67a6,6,0,0,0,7.91,3.1l11.43-5a5.75,5.75,0,0,0,1.73-1.15,5.75,5.75,0,0,0,1.73,1.15l11.43,5a6,6,0,0,0,7.91-3.1l.3-.67A6,6,0,0,0,133.18,131.78Z"/><rect class="cls-5" x="87.42" y="98.32" width="12.75" height="24.5" rx="6.01"/><rect class="cls-3" x="94.68" y="102.02" width="3.58" height="10.64" rx="1.79"/><rect class="cls-4" x="77.55" y="81.87" width="32.5" height="12.75" rx="6.01"/><rect class="cls-5" x="130.92" y="98.32" width="12.75" height="24.5" rx="6.01"/><circle class="cls-4" cx="115.5" cy="159.65" r="6.8"/><rect class="cls-3" x="138.18" y="102.02" width="3.58" height="10.64" rx="1.79"/><rect class="cls-4" x="122.05" y="81.87" width="30.5" height="12.75" rx="6.01"/><path class="cls-6" d="M187,46.07h0a21.52,21.52,0,0,0-21.46-21.46H65.13A21.51,21.51,0,0,0,43.67,46.07h0A21.4,21.4,0,0,0,51,62.16a21.4,21.4,0,0,0-7.33,16.09h0a21.31,21.31,0,0,0,5.59,14.37A26.24,26.24,0,0,0,67.59,135l.22,0a51.06,51.06,0,0,1-1.33-11.63v-.52a12.77,12.77,0,0,1-11.29-12.68v-.85A12.77,12.77,0,0,1,66.48,96.62V73.87q0-2.13.18-4.23c.06-.71.13-1.41.22-2.12h96.93c.09.71.17,1.41.23,2.12.11,1.4.17,2.81.17,4.23V96.62l.15,0c.29,0,.58.08.87.14l.43.1.55.14.49.14.39.14a10.24,10.24,0,0,1,1.08.45l.19.09c.23.11.45.23.67.35l.07,0a14.77,14.77,0,0,1,1.24.82q.3.23.6.48l.3.25c.29.25.56.52.83.8a3.47,3.47,0,0,0,.25.29c.17.2.35.4.51.61s.2.27.29.41l.4.57.26.44.34.62.22.45c.11.23.2.48.3.72l.15.39c.13.38.25.77.35,1.16l0,.07a13.21,13.21,0,0,1,.34,3v.85a12.77,12.77,0,0,1-11.29,12.68v.52A51.06,51.06,0,0,1,162.88,135h0a26.24,26.24,0,0,0,18.55-42.35A21.31,21.31,0,0,0,187,78.25h0a21.41,21.41,0,0,0-7.34-16.09A21.41,21.41,0,0,0,187,46.07Z"/></svg>