<svg id="etapa_2_cc" data-name="etapa 2 cc" xmlns="http://www.w3.org/2000/svg" viewBox="0 0 231 231"><defs><style>.cls-1{fill:#4a4a4a;fill-rule:evenodd;}.cls-2{fill:#131111;}.cls-3{fill:#cbcbcb;}.cls-4{fill:#fff;}.cls-5{fill:#b3b3b3;}.cls-6{fill:#7c7c7c;}.cls-7{fill:#5a5a5a;}.cls-8{fill:#333;}.cls-9{fill:#9e9e9e;}</style></defs><path class="cls-1" d="M115.5,0A115.5,115.5,0,1,1,0,115.5,115.5,115.5,0,0,1,115.5,0Z"/><path class="cls-2" d="M142.73,181.39a28.42,28.42,0,0,1,.27,3.83,27.59,27.59,0,0,1-55.18,0,26.87,26.87,0,0,1,.27-3.83,72.56,72.56,0,0,0-35.42,31,115.55,115.55,0,0,0,125.52.08A72.49,72.49,0,0,0,142.73,181.39Z"/><path class="cls-3" d="M142.73,181.39a27.45,27.45,0,0,0-5.93-13.59c-1,.47-2,.9-3,1.29v14.65a18.35,18.35,0,1,1-36.7,0V169.21c-1.07-.39-2.11-.82-3.13-1.29a27.4,27.4,0,0,0-5.84,13.47,26.87,26.87,0,0,0-.27,3.83,27.59,27.59,0,0,0,55.18,0A28.42,28.42,0,0,0,142.73,181.39Z"/><path class="cls-4" d="M164.44,96.62V73.87q0-2.13-.18-4.23c-2-24.86-21.79-44.39-45.86-44.39h-5.88c-24.07,0-43.83,19.51-45.86,44.39q-.18,2.1-.18,4.23V96.62a12.74,12.74,0,0,0-11.29,12.67v.85a12.77,12.77,0,0,0,11.29,12.68v.52c0,21.19,12.86,39.22,30.79,45.87v14.53a18.41,18.41,0,0,0,18.36,18.35h0A18.41,18.41,0,0,0,134,183.74V169.09c17.75-6.74,30.46-24.67,30.46-45.75v-.52a12.77,12.77,0,0,0,11.29-12.68v-.85A12.74,12.74,0,0,0,164.44,96.62Z"/><path class="cls-5" d="M200.58,56.76a22.71,22.71,0,0,0-34.3-19.53,63.62,63.62,0,0,0-51.13-25.95,65.53,65.53,0,0,0-7.59.47A63.24,63.24,0,0,0,64.25,36.92,22.71,22.71,0,1,0,44.73,77.83,80.12,80.12,0,0,0,78.11,186.42a71.15,71.15,0,0,1,10-5,27.4,27.4,0,0,1,5.84-13.47c-16.28-7.49-27.67-24.64-27.67-44.58v-.52A12.77,12.77,0,0,1,55,110.14v-.85A12.74,12.74,0,0,1,66.26,96.62V75.78a39,39,0,0,0,49.24-20.3A39,39,0,0,0,164.22,76V96.62a12.73,12.73,0,0,1,11.29,12.67v.85a12.77,12.77,0,0,1-11.29,12.68v.52c0,19.86-11.28,36.92-27.44,44.47a27.36,27.36,0,0,1,5.95,13.58,72.48,72.48,0,0,1,10.07,5.08A80.14,80.14,0,0,0,186.29,77.85,22.73,22.73,0,0,0,200.58,56.76Z"/><polygon class="cls-6" points="160.28 20.19 163.72 31.07 172.13 23.36 169.67 34.51 180.82 32.05 173.11 40.47 183.99 43.91 173.11 47.34 180.82 55.76 169.67 53.3 172.13 64.44 163.72 56.74 160.28 67.62 156.84 56.74 148.42 64.44 150.88 53.3 139.74 55.76 147.44 47.34 136.56 43.91 147.44 40.47 139.74 32.05 150.88 34.51 148.42 23.36 156.84 31.07 160.28 20.19"/><path class="cls-7" d="M126.7,135.83v-.73a6,6,0,0,0-6-6H108.21a6,6,0,0,0-6,6v.73a6,6,0,0,0,3.93,5.64,6,6,0,0,0-3.93,5.63v.73a6,6,0,0,0,6,6h12.48a6,6,0,0,0,6-6v-.73a6,6,0,0,0-3.93-5.63A6,6,0,0,0,126.7,135.83Z"/><rect class="cls-8" x="77.31" y="81.87" width="32.5" height="12.75" rx="6.01"/><path class="cls-8" d="M149.11,98.34H137.93c-.17,0-.33,0-.51,0h-.73a6,6,0,0,0-6,6v12.48a6,6,0,0,0,6,6h.73a6,6,0,0,0,6-6V104.33a5.93,5.93,0,0,0-.51-2.42h6.19a1.79,1.79,0,1,0,0-3.57Z"/><rect class="cls-4" x="137.94" y="102.02" width="3.58" height="10.64" rx="1.79"/><path class="cls-8" d="M93.92,98.32h-.73l-.41,0H81.64a1.79,1.79,0,1,0,0,3.57h6a5.93,5.93,0,0,0-.51,2.42v12.48a6,6,0,0,0,6,6h.73a6,6,0,0,0,6-6V104.33A6,6,0,0,0,93.92,98.32Z"/><rect class="cls-8" x="121.81" y="81.87" width="30.5" height="12.75" rx="6.01"/><circle class="cls-9" cx="141.55" cy="135.8" r="6.8"/><rect class="cls-4" x="94.44" y="102.02" width="3.58" height="10.64" rx="1.79"/></svg>