<svg data-name="etapa 2 cc" viewBox="0 0 1000 1000" xmlns="http://www.w3.org/2000/svg"><path d="M500 0A500 500 0 1 1 0 500 500 500 0 0 1 500 0Z" style="fill:#4a4a4a;fill-rule:evenodd;stroke-width:4.32901"/><path class="head" d="M711.126 418.268v-98.484q0-9.221-.78-18.312c-8.658-107.62-94.329-192.165-198.528-192.165h-25.454c-104.2 0-189.74 84.46-198.529 192.165q-.779 9.09-.779 18.312v98.484a55.152 55.152 0 0 0-48.874 54.849v3.68a55.281 55.281 0 0 0 48.874 54.891v2.251c0 91.732 55.671 169.784 133.29 198.572v62.9a79.697 79.697 0 0 0 79.48 79.437 79.697 79.697 0 0 0 79.525-79.437v-63.42c76.84-29.177 131.861-106.796 131.861-198.052v-2.25a55.281 55.281 0 0 0 48.875-54.892v-3.68a55.152 55.152 0 0 0-48.961-54.849Z" style="fill:#fff;fill-opacity:1;stroke-width:4.32901"/><path class="top" d="M868.312 245.714a98.312 98.312 0 0 0-148.485-84.545A275.411 275.411 0 0 0 498.485 48.83a283.68 283.68 0 0 0-32.857 2.035 273.766 273.766 0 0 0-187.49 108.96 98.312 98.312 0 1 0-84.502 177.1A346.84 346.84 0 0 0 338.14 807.013a308.009 308.009 0 0 1 43.29-21.645 118.615 118.615 0 0 1 25.281-58.312C336.234 694.632 286.926 620.39 286.926 534.07v-2.25a55.281 55.281 0 0 1-48.83-55.022v-3.68a55.152 55.152 0 0 1 48.744-54.849v-90.216A168.831 168.831 0 0 0 500 240.173a168.831 168.831 0 0 0 210.91 88.831v89.264a55.108 55.108 0 0 1 48.874 54.849v3.68a55.281 55.281 0 0 1-48.875 54.891v2.251c0 85.974-48.831 159.827-118.788 192.511a118.442 118.442 0 0 1 25.758 58.788 313.766 313.766 0 0 1 43.593 21.991A346.926 346.926 0 0 0 806.45 337.013a98.398 98.398 0 0 0 61.862-91.299z" style="fill:#b3b3b3;fill-opacity:1;stroke-width:4.32901"/><path class="top" style="fill:#7c7c7c;fill-opacity:1;stroke-width:4.32901" d="m693.853 87.403 14.892 47.1 36.407-33.377-10.65 48.268 48.269-10.65-33.377 36.45 47.1 14.893-47.1 14.848 33.377 36.45-48.269-10.65 10.65 48.226-36.407-33.333-14.892 47.1-14.892-47.1-36.45 33.333 10.65-48.225-48.226 10.65 33.333-36.45-47.1-14.85 47.1-14.891-33.333-36.45 48.225 10.649-10.65-48.268 36.451 33.376z"/><path class="clothes" d="M617.879 785.238a118.831 118.831 0 0 0-25.671-58.831 209.432 209.432 0 0 1-12.987 5.584v63.42a79.437 79.437 0 1 1-158.875 0v-62.9a177.872 177.872 0 0 1-13.55-5.585 118.615 118.615 0 0 0-25.28 58.312 116.32 116.32 0 0 0-1.17 16.58 119.437 119.437 0 0 0 238.875 0 123.03 123.03 0 0 0-1.342-16.58z" style="fill:#cbcbcb;fill-opacity:1;stroke-width:4.32901"/><path class="clothes" d="M617.879 785.238a123.03 123.03 0 0 1 1.169 16.58 119.437 119.437 0 0 1-238.875 0 116.32 116.32 0 0 1 1.169-16.58 314.113 314.113 0 0 0-153.333 134.2 500.216 500.216 0 0 0 543.376.346A313.81 313.81 0 0 0 617.88 785.238Z" style="fill:#131111;fill-opacity:1;stroke-width:4.32901"/><circle class="mouth" cx="612.771" cy="587.879" style="fill:#9e9e9e;fill-opacity:1;stroke-width:4.32901" r="29.437"/><path class="mouth" d="M548.485 588.009v-3.16a25.974 25.974 0 0 0-25.974-25.975h-54.07a25.974 25.974 0 0 0-25.973 25.974v3.16a25.974 25.974 0 0 0 17.013 24.416 25.974 25.974 0 0 0-17.013 24.373v3.16a25.974 25.974 0 0 0 25.974 25.974h54.026a25.974 25.974 0 0 0 25.974-25.974v-3.16a25.974 25.974 0 0 0-17.013-24.373 25.974 25.974 0 0 0 17.056-24.415z" style="fill:#5a5a5a;fill-opacity:1;stroke-width:4.32901"/><rect class="eyes" x="334.675" y="354.416" width="140.693" height="55.195" rx="26.017" style="fill:#333;fill-opacity:1;stroke-width:4.32901"/><rect class="eyes" x="527.316" y="354.416" width="132.035" height="55.195" rx="26.017" style="fill:#333;fill-opacity:1;stroke-width:4.32901"/><path class="eyes" d="M406.58 425.628h-53.16a7.749 7.749 0 1 0 0 15.454h25.974a25.671 25.671 0 0 0-2.208 10.476v54.026a25.974 25.974 0 0 0 25.974 25.974h3.16a25.974 25.974 0 0 0 25.974-25.974v-53.939a25.974 25.974 0 0 0-25.714-26.017z" style="fill:#333;fill-opacity:1;stroke-width:4.32901"/><rect class="eyes" x="408.831" y="441.645" width="15.498" height="46.061" rx="7.749" style="fill:#fff;fill-opacity:1;stroke-width:4.32901"/><path class="eyes" d="M645.498 425.714h-53.766a25.974 25.974 0 0 0-25.974 25.974v54.026a25.974 25.974 0 0 0 25.974 25.974h3.16a25.974 25.974 0 0 0 25.974-25.974v-54.069a25.671 25.671 0 0 0-2.208-10.476h26.797a7.749 7.749 0 1 0 0-15.455z" style="fill:#333;fill-opacity:1;stroke-width:4.32901"/><rect class="eyes" x="597.143" y="441.645" width="15.498" height="46.061" rx="7.749" style="fill:#fff;fill-opacity:1;stroke-width:4.32901"/></svg>