<svg id="etapa_2_cc" data-name="etapa 2 cc" viewBox="0 0 231 231" version="1.1" xmlns="http://www.w3.org/2000/svg"><defs id="defs4"><style id="style2"></style></defs><path d="M115.5 0A115.5 115.5 0 1 1 0 115.5 115.5 115.5 0 0 1 115.5 0Z" id="path6" style="fill:#4a4a4a;fill-rule:evenodd"/><path class="head" d="M164.44 96.62V73.87q0-2.13-.18-4.23c-2-24.86-21.79-44.39-45.86-44.39h-5.88c-24.07 0-43.83 19.51-45.86 44.39q-.18 2.1-.18 4.23v22.75a12.74 12.74 0 0 0-11.29 12.67v.85a12.77 12.77 0 0 0 11.29 12.68v.52c0 21.19 12.86 39.22 30.79 45.87v14.53a18.41 18.41 0 0 0 18.36 18.35A18.41 18.41 0 0 0 134 183.74v-14.65c17.75-6.74 30.46-24.67 30.46-45.75v-.52a12.77 12.77 0 0 0 11.29-12.68v-.85a12.74 12.74 0 0 0-11.31-12.67Z" id="path12" style="fill:#fff;fill-opacity:1"/><path class="top" d="M200.58 56.76a22.71 22.71 0 0 0-34.3-19.53 63.62 63.62 0 0 0-51.13-25.95 65.53 65.53 0 0 0-7.59.47 63.24 63.24 0 0 0-43.31 25.17 22.71 22.71 0 1 0-19.52 40.91 80.12 80.12 0 0 0 33.38 108.59 71.15 71.15 0 0 1 10-5 27.4 27.4 0 0 1 5.84-13.47c-16.28-7.49-27.67-24.64-27.67-44.58v-.52A12.77 12.77 0 0 1 55 110.14v-.85a12.74 12.74 0 0 1 11.26-12.67V75.78a39 39 0 0 0 49.24-20.3A39 39 0 0 0 164.22 76v20.62a12.73 12.73 0 0 1 11.29 12.67v.85a12.77 12.77 0 0 1-11.29 12.68v.52c0 19.86-11.28 36.92-27.44 44.47a27.36 27.36 0 0 1 5.95 13.58 72.48 72.48 0 0 1 10.07 5.08 80.14 80.14 0 0 0 33.49-108.62 22.73 22.73 0 0 0 14.29-21.09Z" id="path14" style="fill:#b3b3b3;fill-opacity:1"/><path class="top" id="polygon16" style="fill:#7c7c7c;fill-opacity:1" d="m160.28 20.19 3.44 10.88 8.41-7.71-2.46 11.15 11.15-2.46-7.71 8.42 10.88 3.44-10.88 3.43 7.71 8.42-11.15-2.46 2.46 11.14-8.41-7.7-3.44 10.88-3.44-10.88-8.42 7.7 2.46-11.14-11.14 2.46 7.7-8.42-10.88-3.43 10.88-3.44-7.7-8.42 11.14 2.46-2.46-11.15 8.42 7.71 3.44-10.88z"/><path class="clothes" d="M142.73 181.39a27.45 27.45 0 0 0-5.93-13.59c-1 .47-2 .9-3 1.29v14.65a18.35 18.35 0 1 1-36.7 0v-14.53c-1.07-.39-2.11-.82-3.13-1.29a27.4 27.4 0 0 0-5.84 13.47 26.87 26.87 0 0 0-.27 3.83 27.59 27.59 0 0 0 55.18 0 28.42 28.42 0 0 0-.31-3.83Z" id="path10" style="fill:#cbcbcb;fill-opacity:1"/><path class="clothes" d="M142.73 181.39a28.42 28.42 0 0 1 .27 3.83 27.59 27.59 0 0 1-55.18 0 26.87 26.87 0 0 1 .27-3.83 72.56 72.56 0 0 0-35.42 31 115.55 115.55 0 0 0 125.52.08 72.49 72.49 0 0 0-35.46-31.08Z" id="path8" style="fill:#131111;fill-opacity:1"/><circle class="mouth" cx="141.55" cy="135.8" r="6.8" id="circle30" style="fill:#9e9e9e;fill-opacity:1"/><path class="mouth" d="M126.7 135.83v-.73a6 6 0 0 0-6-6h-12.49a6 6 0 0 0-6 6v.73a6 6 0 0 0 3.93 5.64 6 6 0 0 0-3.93 5.63v.73a6 6 0 0 0 6 6h12.48a6 6 0 0 0 6-6v-.73a6 6 0 0 0-3.93-5.63 6 6 0 0 0 3.94-5.64Z" id="path18" style="fill:#5a5a5a;fill-opacity:1"/><rect class="eyes" x="77.31" y="81.87" width="32.5" height="12.75" rx="6.01" id="rect20" style="fill:#333;fill-opacity:1"/><rect class="eyes" x="121.81" y="81.87" width="30.5" height="12.75" rx="6.01" id="rect28" style="fill:#333;fill-opacity:1"/><path class="eyes" d="M93.92 98.32H81.64a1.79 1.79 0 1 0 0 3.57h6a5.93 5.93 0 0 0-.51 2.42v12.48a6 6 0 0 0 6 6h.73a6 6 0 0 0 6-6v-12.46a6 6 0 0 0-5.94-6.01Z" id="path26" style="fill:#333;fill-opacity:1"/><rect class="eyes" x="94.44" y="102.02" width="3.58" height="10.64" rx="1.79" id="rect32" style="fill:#fff;fill-opacity:1"/><path class="eyes" d="M149.11 98.34h-12.42a6 6 0 0 0-6 6v12.48a6 6 0 0 0 6 6h.73a6 6 0 0 0 6-6v-12.49a5.93 5.93 0 0 0-.51-2.42h6.19a1.79 1.79 0 1 0 0-3.57Z" id="path22" style="fill:#333;fill-opacity:1"/><rect class="eyes" x="137.94" y="102.02" width="3.58" height="10.64" rx="1.79" id="rect24" style="fill:#fff;fill-opacity:1"/></svg>