<svg data-name="etapa 2 cc" viewBox="0 0 1000 1000" xmlns="http://www.w3.org/2000/svg"><path d="M500 0A500 500 0 1 1 0 500 500 500 0 0 1 500 0Z" style="fill:gray;fill-rule:evenodd;stroke-width:4.32901"/><path class="head" d="M711.039 418.268v-98.484q0-9.221-.78-18.312c-8.657-107.62-94.285-192.165-198.527-192.165h-25.455c-104.2 0-189.74 84.46-198.528 192.165q-.78 9.09-.78 18.312v98.484a55.152 55.152 0 0 0-48.874 54.849v3.68a55.281 55.281 0 0 0 48.875 54.891v2.251c0 91.732 55.67 169.784 133.29 198.572v62.9a79.697 79.697 0 0 0 79.48 79.437 79.697 79.697 0 0 0 79.437-79.437v-63.42c76.84-29.177 131.862-106.796 131.862-198.052v-2.25a55.281 55.281 0 0 0 48.874-54.892v-3.68a55.108 55.108 0 0 0-48.874-54.849Z" style="fill:#fff;fill-opacity:1;stroke-width:4.32901"/><path class="top" d="M864.762 497.403 786.84 284.589a112.554 112.554 0 0 0 31.991-78.745v-1.472A113.03 113.03 0 0 0 705.628 91.385H336.926a104.502 104.502 0 0 0-15.281-1.169c-59.177 0-107.143 50.91-107.143 113.68v95.238l-72.727 198.269c-9.567 25.974 5.108 55.627 32.987 65.844a55.065 55.065 0 0 0 39.74-.476v11.904c0 27.793 23.94 50.477 53.593 50.477a55.498 55.498 0 0 0 33.68-11.256 219.87 219.87 0 0 1-14.935-79.957v-2.25a55.411 55.411 0 0 1-48.745-54.892v-3.68a55.108 55.108 0 0 1 46.927-54.546c.649 0 1.298-.26 1.948-.303l34.891-100.13.217-.562a105.714 105.714 0 0 0 89.177-51.342 112.9 112.9 0 0 0 95.498 52.597h204.33v99.567a53.203 53.203 0 0 1 11.471 2.598 55.152 55.152 0 0 1 37.403 52.25v3.68a55.498 55.498 0 0 1-48.875 54.892v2.251a220.78 220.78 0 0 1-14.892 79.914 55.498 55.498 0 0 0 33.767 11.298c29.697 0 53.593-22.684 53.593-50.476v-16.363a54.675 54.675 0 0 0 48.441 4.978c27.663-10.39 42.468-39.914 32.77-66.017z" style="fill:#4d4d4d;fill-opacity:1;stroke-width:4.32901"/><path class="clothes" d="M617.879 785.238a118.831 118.831 0 0 0-25.671-58.831 209.432 209.432 0 0 1-12.987 5.584v63.42a79.437 79.437 0 1 1-158.875 0v-62.9a177.872 177.872 0 0 1-13.55-5.585 118.615 118.615 0 0 0-25.28 58.312 116.32 116.32 0 0 0-1.17 16.58 119.437 119.437 0 0 0 238.875 0 123.03 123.03 0 0 0-1.342-16.58z" style="fill:#c9c9c9;fill-opacity:1;stroke-width:4.32901"/><path class="clothes" d="M617.879 785.238a123.03 123.03 0 0 1 1.169 16.58 119.437 119.437 0 0 1-238.875 0 116.32 116.32 0 0 1 1.169-16.58 314.113 314.113 0 0 0-153.333 134.2 500.216 500.216 0 0 0 543.376.346A313.81 313.81 0 0 0 617.88 785.238Z" style="fill:#787878;fill-opacity:1;stroke-width:4.32901"/><rect class="mouth" x="607.316" y="558.485" width="69.351" height="36.104" rx="17.013" style="fill:#9e9e9e;fill-opacity:1;stroke-width:4.32901"/><path class="mouth" d="M425.844 581.948c0 27.706 9.784 59.913 61.342 59.913h21.645c51.559 0 61.212-32.207 61.342-59.913z" style="fill:#fff;fill-opacity:1;stroke-width:4.32901"/><path class="mouth" d="M587.792 609.437c.303-.563.606-1.169.866-1.775l1.299-2.9a25.974 25.974 0 0 0-13.42-34.286l-49.48-21.645a25.974 25.974 0 0 0-29.611 6.277 25.974 25.974 0 0 0-29.61-6.277l-49.481 21.645a25.974 25.974 0 0 0-13.42 34.286l1.299 2.9a25.195 25.195 0 0 0 3.073 5.238 116.494 116.494 0 1 0 178.485-3.463zm-78.918 32.424H487.23c-25.974 0-41.125-8.095-50-19.653a22.684 22.684 0 0 0 3.29-1.126L490 599.437a24.892 24.892 0 0 0 7.49-4.978 24.892 24.892 0 0 0 7.488 4.978l49.48 21.645a25.541 25.541 0 0 0 4.33 1.386c-9.004 11.428-24.286 19.393-49.914 19.393z" style="fill:#4d4d4d;fill-opacity:1;stroke-width:4.32901"/><rect class="eyes" x="335.714" y="354.416" width="140.693" height="55.195" rx="26.017" style="fill:#1a1a1a;fill-opacity:1;stroke-width:4.32901"/><rect class="eyes" x="528.355" y="354.416" width="132.035" height="55.195" rx="26.017" style="fill:#1a1a1a;fill-opacity:1;stroke-width:4.32901"/><path class="eyes" d="M433.636 505.671v-54.026a25.974 25.974 0 0 0-25.974-25.974h-3.203a25.974 25.974 0 0 0-25.974 25.974v54.026a25.974 25.974 0 0 0 25.974 25.974h3.203a25.974 25.974 0 0 0 25.974-25.974Zm-8.268-25.714a7.749 7.749 0 0 1-15.498 0v-30.563a7.749 7.749 0 0 1 15.498 0z" style="fill:#131111;fill-opacity:1;stroke-width:4.32901"/><path class="eyes" d="M417.62 441.558a7.749 7.749 0 0 0-7.75 7.75v30.562a7.749 7.749 0 0 0 15.498 0v-30.563a7.749 7.749 0 0 0-7.749-7.749z" style="fill:#fff;fill-opacity:1;stroke-width:4.32901"/><path class="eyes" d="M595.974 425.628h-3.203a25.974 25.974 0 0 0-25.974 25.974v54.026a25.974 25.974 0 0 0 25.974 25.974h3.203a25.974 25.974 0 0 0 25.974-25.974v-53.983a25.974 25.974 0 0 0-25.974-26.017zm17.706 54.329a7.749 7.749 0 0 1-15.498 0v-30.563a7.749 7.749 0 1 1 15.498 0z" style="fill:#1a1a1a;fill-opacity:1;stroke-width:4.32901"/><path class="eyes" d="M606.06 441.558a7.749 7.749 0 0 0-7.748 7.75v30.562a7.749 7.749 0 0 0 15.498 0v-30.563a7.749 7.749 0 0 0-7.75-7.749z" style="fill:#fff;fill-opacity:1;stroke-width:4.32901"/></svg>