<svg id="etapa_2_cc" data-name="etapa 2 cc" viewBox="0 0 231 231" version="1.1" xmlns="http://www.w3.org/2000/svg"><defs id="defs4"><style id="style2"></style></defs><path d="M115.5 0A115.5 115.5 0 1 1 0 115.5 115.5 115.5 0 0 1 115.5 0Z" id="path6" style="fill:gray;fill-rule:evenodd"/><path class="head" d="M164.25 96.62V73.87q0-2.13-.18-4.23c-2-24.86-21.78-44.39-45.86-44.39h-5.88c-24.07 0-43.83 19.51-45.86 44.39q-.18 2.1-.18 4.23v22.75A12.74 12.74 0 0 0 55 109.29v.85a12.77 12.77 0 0 0 11.29 12.68v.52c0 21.19 12.86 39.22 30.79 45.87v14.53a18.41 18.41 0 0 0 18.36 18.35 18.41 18.41 0 0 0 18.35-18.35v-14.65c17.75-6.74 30.46-24.67 30.46-45.75v-.52a12.77 12.77 0 0 0 11.29-12.68v-.85a12.73 12.73 0 0 0-11.29-12.67Z" id="path8" style="fill:#fff;fill-opacity:1"/><path class="top" d="m199.76 114.9-18-49.16a26 26 0 0 0 7.39-18.19v-.34A26.11 26.11 0 0 0 163 21.11H77.83a24.14 24.14 0 0 0-3.53-.27c-13.67 0-24.75 11.76-24.75 26.26v22l-16.8 45.8c-2.21 6 1.18 12.85 7.62 15.21a12.72 12.72 0 0 0 9.18-.11v2.75c0 6.42 5.53 11.66 12.38 11.66a12.82 12.82 0 0 0 7.78-2.6 50.79 50.79 0 0 1-3.45-18.47v-.52A12.8 12.8 0 0 1 55 110.14v-.85a12.73 12.73 0 0 1 10.84-12.6c.15 0 .3-.06.45-.07l8.06-23.13.05-.13A24.42 24.42 0 0 0 95 61.5a26.08 26.08 0 0 0 22.06 12.15h47.2v23a12.29 12.29 0 0 1 2.65.6 12.74 12.74 0 0 1 8.64 12.07v.85a12.82 12.82 0 0 1-11.29 12.68v.52a51 51 0 0 1-3.44 18.46 12.82 12.82 0 0 0 7.8 2.61c6.86 0 12.38-5.24 12.38-11.66V129a12.63 12.63 0 0 0 11.19 1.15c6.39-2.4 9.81-9.22 7.57-15.25Z" id="path16" style="fill:#4d4d4d;fill-opacity:1"/><path class="clothes" d="M142.73 181.39a27.45 27.45 0 0 0-5.93-13.59c-1 .47-2 .9-3 1.29v14.65a18.35 18.35 0 1 1-36.7 0v-14.53c-1.07-.39-2.11-.82-3.13-1.29a27.4 27.4 0 0 0-5.84 13.47 26.87 26.87 0 0 0-.27 3.83 27.59 27.59 0 0 0 55.18 0 28.42 28.42 0 0 0-.31-3.83Z" id="path12" style="fill:#c9c9c9;fill-opacity:1"/><path class="clothes" d="M142.73 181.39a28.42 28.42 0 0 1 .27 3.83 27.59 27.59 0 0 1-55.18 0 26.87 26.87 0 0 1 .27-3.83 72.56 72.56 0 0 0-35.42 31 115.55 115.55 0 0 0 125.52.08 72.49 72.49 0 0 0-35.46-31.08Z" id="path10" style="fill:#787878;fill-opacity:1"/><rect class="mouth" x="140.29" y="129.01" width="16.02" height="8.34" rx="3.93" id="rect32" style="fill:#9e9e9e;fill-opacity:1"/><path class="mouth" d="M98.37 134.43c0 6.4 2.26 13.84 14.17 13.84h5c11.91 0 14.14-7.44 14.17-13.84Z" id="path28" style="fill:#fff;fill-opacity:1"/><path class="mouth" d="M135.78 140.78c.07-.13.14-.27.2-.41l.3-.67a6 6 0 0 0-3.1-7.92l-11.43-5a6 6 0 0 0-6.84 1.45 6 6 0 0 0-6.84-1.45l-11.43 5a6 6 0 0 0-3.1 7.92l.3.67a5.82 5.82 0 0 0 .71 1.21 26.91 26.91 0 1 0 41.23-.8Zm-18.23 7.49h-5c-6 0-9.5-1.87-11.55-4.54a5.24 5.24 0 0 0 .76-.26l11.43-5a5.75 5.75 0 0 0 1.73-1.15 5.75 5.75 0 0 0 1.73 1.15l11.43 5a5.9 5.9 0 0 0 1 .32c-2.08 2.64-5.61 4.48-11.53 4.48Z" id="path30" style="fill:#4d4d4d;fill-opacity:1"/><rect class="eyes" x="77.55" y="81.87" width="32.5" height="12.75" rx="6.01" id="rect22" style="fill:#1a1a1a;fill-opacity:1"/><rect class="eyes" x="122.05" y="81.87" width="30.5" height="12.75" rx="6.01" id="rect26" style="fill:#1a1a1a;fill-opacity:1"/><path class="eyes" d="M100.17 116.81v-12.48a6 6 0 0 0-6-6h-.74a6 6 0 0 0-6 6v12.48a6 6 0 0 0 6 6h.74a6 6 0 0 0 6-6Zm-1.91-5.94a1.79 1.79 0 0 1-3.58 0v-7.06a1.79 1.79 0 0 1 3.58 0Z" id="path18" style="fill:#131111;fill-opacity:1"/><path class="eyes" d="M96.47 102a1.79 1.79 0 0 0-1.79 1.79v7.06a1.79 1.79 0 0 0 3.58 0v-7.06a1.79 1.79 0 0 0-1.79-1.79Z" id="path20" style="fill:#fff;fill-opacity:1"/><path class="eyes" d="M137.67 98.32h-.74a6 6 0 0 0-6 6v12.48a6 6 0 0 0 6 6h.74a6 6 0 0 0 6-6v-12.47a6 6 0 0 0-6-6.01Zm4.09 12.55a1.79 1.79 0 0 1-3.58 0v-7.06a1.79 1.79 0 1 1 3.58 0Z" id="path24" style="fill:#1a1a1a;fill-opacity:1"/><path class="eyes" d="M140 102a1.79 1.79 0 0 0-1.79 1.79v7.06a1.79 1.79 0 0 0 3.58 0v-7.06A1.79 1.79 0 0 0 140 102Z" id="path14" style="fill:#fff;fill-opacity:1"/></svg>