<svg data-name="etapa 2 cc" viewBox="0 0 1000 1000" xmlns="http://www.w3.org/2000/svg"><path d="M500 0A500 500 0 1 1 0 500 500 500 0 0 1 500 0Z" style="fill:#cbcbcb;fill-rule:evenodd;stroke-width:4.32901"/><path class="head" d="M711.039 418.268v-98.484q0-9.221-.78-18.312c-8.657-107.62-94.285-192.165-198.527-192.165h-25.455c-104.2 0-189.74 84.46-198.528 192.165q-.78 9.09-.78 18.312v98.484a55.152 55.152 0 0 0-48.874 54.849v3.68a55.281 55.281 0 0 0 48.875 54.891v2.251c0 91.732 55.67 169.784 133.29 198.572v62.9a79.697 79.697 0 0 0 79.48 79.437 79.697 79.697 0 0 0 79.437-79.437v-63.42c76.84-29.177 131.862-106.796 131.862-198.052v-2.25a55.281 55.281 0 0 0 48.874-54.892v-3.68a55.108 55.108 0 0 0-48.874-54.849Z" style="fill:#909090;fill-opacity:1;stroke-width:4.32901"/><path class="top" d="M885.8 389.61a95.238 95.238 0 0 0-35.454-74.155 105.195 105.195 0 0 0-79.09-145.974 112.294 112.294 0 0 0-169.914-86.104 112.554 112.554 0 0 0-203.074 1.125 112.294 112.294 0 0 0-171.774 85.022 105.238 105.238 0 0 0-79.048 145.974 95.238 95.238 0 0 0 3.593 151.082 64.372 64.372 0 0 0 47.619 107.662 62.814 62.814 0 0 0 15.714-2.034v6.796c0 27.793 23.94 50.477 53.593 50.477A55.368 55.368 0 0 0 303.03 617.1a219.35 219.35 0 0 1-16.233-83.16v-2.252a55.368 55.368 0 0 1-48.702-51.948v-6.753A56.667 56.667 0 0 1 239.697 460a55.238 55.238 0 0 1 47.273-41.732v-49.09A96.753 96.753 0 0 0 298.7 362.9a103.896 103.896 0 0 0 22.9-18.96 105.022 105.022 0 0 0 25.628-52.382 112.554 112.554 0 0 0 92.858-64.458 112.554 112.554 0 0 0 117.835 1.082 112.251 112.251 0 0 0 92.338 63.376 105.325 105.325 0 0 0 60.606 77.923v48.787a55.152 55.152 0 0 1 47.23 41.559 53.723 53.723 0 0 1 1.644 13.29v6.84a55.368 55.368 0 0 1-48.744 51.731v2.251a219.394 219.394 0 0 1-16.277 83.334 55.541 55.541 0 0 0 34.891 12.208c29.697 0 53.637-22.684 53.637-50.477v-6.796a62.554 62.554 0 0 0 15.714 2.034 64.372 64.372 0 0 0 47.62-107.662 95.238 95.238 0 0 0 39.22-76.97z" style="fill:#333;fill-opacity:1;stroke-width:4.32901"/><path class="clothes" d="M617.879 785.238a118.831 118.831 0 0 0-25.671-58.831 209.432 209.432 0 0 1-12.987 5.584v63.42a79.437 79.437 0 1 1-158.875 0v-62.9a177.872 177.872 0 0 1-13.55-5.585 118.615 118.615 0 0 0-25.28 58.312 116.32 116.32 0 0 0-1.17 16.58 119.437 119.437 0 0 0 238.875 0 123.03 123.03 0 0 0-1.342-16.58z" style="fill:#757575;fill-opacity:1;stroke-width:4.32901"/><path class="clothes" d="M617.879 785.238a123.03 123.03 0 0 1 1.169 16.58 119.437 119.437 0 0 1-238.875 0 116.32 116.32 0 0 1 1.169-16.58 314.113 314.113 0 0 0-153.333 134.2 500.216 500.216 0 0 0 543.376.346A313.81 313.81 0 0 0 617.88 785.238Z" style="fill:#d8d8d8;fill-opacity:1;stroke-width:4.32901"/><rect class="mouth" x="607.316" y="558.485" width="69.351" height="36.104" rx="17.013" style="fill:#d8d8d8;fill-opacity:1;stroke-width:4.32901"/><path class="mouth" d="M425.844 581.948c0 27.706 9.784 59.913 61.342 59.913h21.645c51.559 0 61.212-32.207 61.342-59.913z" style="fill:#fff;fill-opacity:1;stroke-width:4.32901"/><path d="M587.792 609.437c.303-.563.606-1.169.866-1.775l1.299-2.9a25.974 25.974 0 0 0-13.42-34.286l-49.48-21.645a25.974 25.974 0 0 0-29.611 6.277 25.974 25.974 0 0 0-29.61-6.277l-49.481 21.645a25.974 25.974 0 0 0-13.42 34.286l1.299 2.9a25.195 25.195 0 0 0 3.073 5.238 116.494 116.494 0 1 0 178.485-3.463zm-78.918 32.424H487.23c-25.974 0-41.125-8.095-50-19.653a22.684 22.684 0 0 0 3.29-1.126L490 599.437a24.892 24.892 0 0 0 7.49-4.978 24.892 24.892 0 0 0 7.488 4.978l49.48 21.645a25.541 25.541 0 0 0 4.33 1.386c-9.004 11.428-24.286 19.393-49.914 19.393z" style="fill:#000;fill-opacity:1;stroke-width:4.32901" class="mouth"/><rect class="eyes" x="335.714" y="354.416" width="140.693" height="55.195" rx="26.017" style="fill:#1a1a1a;fill-opacity:1;stroke-width:4.32901"/><rect class="eyes" x="528.355" y="354.416" width="132.035" height="55.195" rx="26.017" style="fill:#1a1a1a;fill-opacity:1;stroke-width:4.32901"/><path class="eyes" d="M433.636 505.671v-54.026a25.974 25.974 0 0 0-25.974-25.974h-3.203a25.974 25.974 0 0 0-25.974 25.974v54.026a25.974 25.974 0 0 0 25.974 25.974h3.203a25.974 25.974 0 0 0 25.974-25.974Zm-8.268-25.714a7.749 7.749 0 0 1-15.498 0v-30.563a7.749 7.749 0 0 1 15.498 0z" style="fill:#131111;fill-opacity:1;stroke-width:4.32901"/><path class="eyes" d="M417.62 441.558a7.749 7.749 0 0 0-7.75 7.75v30.562a7.749 7.749 0 0 0 15.498 0v-30.563a7.749 7.749 0 0 0-7.749-7.749z" style="fill:#fff;fill-opacity:1;stroke-width:4.32901"/><path class="eyes" d="M595.974 425.628h-3.203a25.974 25.974 0 0 0-25.974 25.974v54.026a25.974 25.974 0 0 0 25.974 25.974h3.203a25.974 25.974 0 0 0 25.974-25.974v-53.983a25.974 25.974 0 0 0-25.974-26.017zm17.706 54.329a7.749 7.749 0 0 1-15.498 0v-30.563a7.749 7.749 0 1 1 15.498 0z" style="fill:#1a1a1a;fill-opacity:1;stroke-width:4.32901"/><path class="eyes" d="M606.06 441.558a7.749 7.749 0 0 0-7.748 7.75v30.562a7.749 7.749 0 0 0 15.498 0v-30.563a7.749 7.749 0 0 0-7.75-7.749z" style="fill:#fff;fill-opacity:1;stroke-width:4.32901"/></svg>