<svg id="FINAL_AVATARS" data-name="FINAL AVATARS" xmlns="http://www.w3.org/2000/svg" xmlns:xlink="http://www.w3.org/1999/xlink" viewBox="0 0 231 231"><defs><style>.cls-1{fill:none;clip-rule:evenodd;}.cls-2{clip-path:url(#clip-path);}.cls-3{fill:#cbcbcb;fill-rule:evenodd;}.cls-4{fill:#333;}.cls-5{fill:#909090;}.cls-6{fill:#d8d8d8;}.cls-7{fill:#757575;}.cls-8{fill:#fff;}</style><clipPath id="clip-path"><path class="cls-1" d="M115.5,0A115.5,115.5,0,1,1,0,115.5,115.5,115.5,0,0,1,115.5,0Z"/></clipPath></defs><g class="cls-2"><path class="cls-3" d="M115.5,0A115.5,115.5,0,1,1,0,115.5,115.5,115.5,0,0,1,115.5,0Z"/><circle class="cls-4" cx="182.59" cy="90.01" r="22.02"/><circle class="cls-4" cx="184.57" cy="117.76" r="14.89"/><path class="cls-4" d="M180.94,49.2v84.55c0,6.42-5.53,11.66-12.39,11.66h0c-6.82,0-12.38-5.21-12.38-11.66V49.2c0-6.41,5.53-11.65,12.38-11.65h0C175.41,37.55,180.94,42.79,180.94,49.2Z"/><path class="cls-5" d="M164.22,96.62v26.2a12.77,12.77,0,0,0,11.29-12.68v-.85A12.73,12.73,0,0,0,164.22,96.62Z"/><circle class="cls-4" cx="152.32" cy="41.49" r="25.95"/><circle class="cls-4" cx="47.89" cy="90.01" r="22.02"/><path class="cls-4" d="M49.55,49.2v84.55c0,6.42,5.53,11.66,12.38,11.66h0c6.82,0,12.39-5.21,12.39-11.66V49.2c0-6.41-5.53-11.65-12.39-11.65h0C55.08,37.55,49.55,42.79,49.55,49.2Z"/><circle class="cls-6" cx="115.41" cy="248.31" r="72.28"/><circle class="cls-7" cx="115.41" cy="185.22" r="27.59"/><rect class="cls-5" x="97.06" y="139.13" width="36.71" height="62.96" rx="18.35"/><path class="cls-5" d="M164,69.64c-2-24.86-21.78-44.39-45.86-44.39H112.3c-24.07,0-43.83,19.51-45.86,44.39q-.18,2.1-.18,4.23v49.47c0,26.84,20.61,48.61,46,48.61h5.88c25.42,0,46-21.75,46-48.61V73.87Q164.22,71.74,164,69.64Z"/><circle cx="115.5" cy="158.46" r="26.91"/><rect class="cls-6" x="140.29" y="129.01" width="16.02" height="8.34" rx="3.93"/><rect x="87.42" y="98.32" width="12.75" height="24.5" rx="6.01"/><rect class="cls-8" x="94.68" y="102.02" width="3.58" height="10.64" rx="1.79"/><rect x="77.55" y="81.87" width="32.5" height="12.75" rx="6.01"/><rect x="130.92" y="98.32" width="12.75" height="24.5" rx="6.01"/><rect class="cls-8" x="138.18" y="102.02" width="3.58" height="10.64" rx="1.79"/><rect x="122.05" y="81.87" width="30.5" height="12.75" rx="6.01"/><path class="cls-8" d="M98.37,134.43c0,6.4,2.26,13.84,14.17,13.84h5c11.91,0,14.14-7.44,14.17-13.84Z"/><rect x="92.66" y="128.75" width="24.5" height="12.75" rx="6.01" transform="translate(-45.38 53.4) rotate(-23.64)"/><rect x="118.53" y="122.88" width="12.75" height="24.5" rx="6.01" transform="translate(-48.96 195.38) rotate(-66.36)"/><path class="cls-4" d="M159.84,29.61A63.37,63.37,0,0,0,51.94,72.52H178.6A63.17,63.17,0,0,0,159.84,29.61Z"/><circle class="cls-4" cx="56.32" cy="63.12" r="24.3"/><circle class="cls-4" cx="78.17" cy="41.49" r="25.95"/><circle class="cls-4" cx="174.17" cy="63.12" r="24.3"/><circle class="cls-4" cx="45.92" cy="117.76" r="14.89"/><path class="cls-5" d="M66.27,96.62v26.2A12.77,12.77,0,0,1,55,110.14v-.85A12.75,12.75,0,0,1,66.27,96.62Z"/></g></svg>